<svg width="18" height="18" viewBox="0 0 18 18" fill="none" xmlns="http://www.w3.org/2000/svg">
<g clip-path="url(#clip0_107_697)">
<path d="M16.9269 7.89446L16.1814 8.63996L9.36985 1.82846L10.1154 1.08296L9.05485 0.0224609L3.1381 5.93921L4.1986 6.99971L4.96735 6.23096L7.8376 9.10121L0.0166016 16.9222L1.0771 17.9827L8.8981 10.1625L11.7789 13.0432L11.0101 13.812L12.0706 14.8725L17.9881 8.95571L16.9276 7.89521L16.9269 7.89446ZM13.1199 7.69946L10.8384 9.98096L8.08435 7.22696L10.3659 4.94546L13.1199 7.69946ZM8.30935 2.88896L9.3046 3.88421L7.0231 6.16571L6.02785 5.17046L8.30935 2.88896ZM11.8989 11.0415L14.1804 8.75996L15.1209 9.70046L12.8394 11.982L11.8989 11.0415Z" fill="#408DFB"/>
</g>
<defs>
<clipPath id="clip0_107_697">
<rect width="18" height="18" fill="white"/>
</clipPath>
</defs>
</svg>
