<svg width="18" height="18" viewBox="0 0 18 18" fill="none" xmlns="http://www.w3.org/2000/svg">
<g clip-path="url(#clip0_110_250)">
<path d="M9.00005 12C9.34929 12.0006 9.69386 11.92 10.0065 11.7645L11.5065 11.0145C12.2711 10.6349 12.7534 9.85359 12.7501 8.99999V6.77474C12.7527 5.92189 12.2705 5.14163 11.5065 4.7625L10.0065 4.01252C9.37278 3.69752 8.62806 3.69752 7.9943 4.01252L6.49429 4.7625C5.73006 5.14142 5.24754 5.92175 5.25004 6.77474V8.99999C5.2473 9.85306 5.72946 10.6336 6.49355 11.013L7.99356 11.763C8.3061 11.9191 8.6507 12.0002 9.00005 12ZM6.75005 8.99999V6.77474C6.75125 6.69824 6.76415 6.62234 6.7883 6.54974L8.42331 7.36723C8.78641 7.54871 9.21373 7.54871 9.57682 7.36723L11.2118 6.54974C11.236 6.62234 11.2489 6.69824 11.2501 6.77474V8.99999C11.2513 9.28455 11.0904 9.54498 10.8353 9.67123L9.33533 10.4212C9.12383 10.5259 8.8756 10.5259 8.6641 10.4212L7.16409 9.67123C6.90931 9.54477 6.74871 9.28441 6.75005 8.99999ZM14.25 16.5H12.2183L14.8335 14.0835C18.0554 10.8617 18.0555 5.63811 14.8337 2.41621C11.6119 -0.805683 6.38836 -0.805718 3.16647 2.41604C-0.0554252 5.63779 -0.0554957 10.8614 3.16629 14.0833C3.17336 14.0904 5.78181 16.5 5.78181 16.5H3.75006C3.33585 16.5 3.00007 16.8358 3.00007 17.25C3.00007 17.6642 3.33585 18 3.75006 18H14.2501C14.6643 18 15.0001 17.6642 15.0001 17.25C15.0001 16.8358 14.6642 16.5 14.25 16.5ZM4.22706 3.47698C6.85731 0.834919 11.1314 0.825356 13.7734 3.45561C16.4155 6.08586 16.425 10.3599 13.7948 13.002L10.8061 15.7627C9.78597 16.7242 8.19163 16.7186 7.17832 15.75L4.22706 13.023C1.59509 10.3852 1.59513 6.11476 4.22706 3.47698Z" fill="#408DFB"/>
</g>
<defs>
<clipPath id="clip0_110_250">
<rect width="18" height="18" fill="white"/>
</clipPath>
</defs>
</svg>
