<svg width="18" height="18" viewBox="0 0 18 18" fill="none" xmlns="http://www.w3.org/2000/svg">
<g clip-path="url(#clip0_110_200)">
<path d="M12.75 9V9.75H10.875L9.44175 11.5658C9.2955 11.8335 9.015 12 8.7105 12H7.87575L8.751 9.75H7.23825L6.07875 8.37525C5.856 7.98525 6.13725 7.5 6.5865 7.5C6.74175 7.5 6.89025 7.5615 6.99975 7.671L7.83225 8.25H8.763L7.875 6H8.697C9.00225 6 9.28275 6.1665 9.42825 6.43425L10.875 8.25H11.8125C12.414 8.25 12.75 8.586 12.75 9ZM15.75 9C15.75 9.82725 16.4228 10.5 17.25 10.5H18V13.5C18 14.7405 16.9905 15.75 15.75 15.75H2.25C1.0095 15.75 0 14.7405 0 13.5V4.5C0 3.2595 1.0095 2.25 2.25 2.25H15.75C16.9905 2.25 18 3.2595 18 4.5V7.5H17.25C16.4228 7.5 15.75 8.17275 15.75 9ZM14.25 9C14.25 7.605 15.207 6.42825 16.5 6.09525V4.5C16.5 4.086 16.164 3.75 15.75 3.75H4.5V5.25H3V3.75H2.25C1.836 3.75 1.5 4.086 1.5 4.5V13.5C1.5 13.914 1.836 14.25 2.25 14.25H3V12.75H4.5V14.25H15.75C16.164 14.25 16.5 13.914 16.5 13.5V11.9047C15.207 11.5717 14.25 10.395 14.25 9ZM3 8.25H4.5V6.75H3V8.25ZM3 11.25H4.5V9.75H3V11.25Z" fill="#408DFB"/>
</g>
<defs>
<clipPath id="clip0_110_200">
<rect width="18" height="18" fill="white"/>
</clipPath>
</defs>
</svg>
