<svg width="18" height="18" viewBox="0 0 18 18" fill="none" xmlns="http://www.w3.org/2000/svg">
<g clip-path="url(#clip0_105_560)">
<path d="M9 9.00038C9.59334 9.00038 10.1734 8.82444 10.6667 8.49479C11.1601 8.16515 11.5446 7.69661 11.7716 7.14843C11.9987 6.60026 12.0581 5.99706 11.9424 5.41511C11.8266 4.83317 11.5409 4.29862 11.1213 3.87906C10.7018 3.45951 10.1672 3.17378 9.58527 3.05803C9.00333 2.94227 8.40013 3.00168 7.85195 3.22874C7.30377 3.45581 6.83524 3.84032 6.50559 4.33367C6.17595 4.82702 6 5.40704 6 6.00038C6 6.79603 6.31607 7.55909 6.87868 8.1217C7.44129 8.68431 8.20435 9.00038 9 9.00038ZM9 4.50038C9.29667 4.50038 9.58668 4.58836 9.83336 4.75318C10.08 4.918 10.2723 5.15227 10.3858 5.42636C10.4994 5.70045 10.5291 6.00205 10.4712 6.29302C10.4133 6.58399 10.2704 6.85126 10.0607 7.06104C9.85088 7.27082 9.58361 7.41368 9.29264 7.47156C9.00167 7.52944 8.70006 7.49973 8.42598 7.3862C8.15189 7.27267 7.91762 7.08041 7.7528 6.83374C7.58797 6.58707 7.5 6.29706 7.5 6.00038C7.5 5.60256 7.65804 5.22103 7.93934 4.93972C8.22064 4.65842 8.60218 4.50038 9 4.50038ZM12 16.5229L18 17.9839V10.1126C17.9998 9.62954 17.8442 9.15933 17.5561 8.77154C17.268 8.38376 16.8627 8.099 16.4003 7.95938L14.8253 7.43438C14.9404 6.96658 14.9991 6.48665 15 6.00488C15 4.41358 14.3679 2.88746 13.2426 1.76224C12.1174 0.637024 10.5913 0.00488281 9 0.00488281C7.4087 0.00488281 5.88258 0.637024 4.75736 1.76224C3.63214 2.88746 3 4.41358 3 6.00488C3.00222 6.30933 3.02729 6.61319 3.075 6.91388C2.7344 6.7781 2.36572 6.72784 2.0012 6.76752C1.63669 6.80719 1.28745 6.93558 0.984035 7.14146C0.680622 7.34733 0.43228 7.62443 0.260734 7.94849C0.0891893 8.27255 -0.000332408 8.63372 9.27481e-07 9.00038V16.3144L5.98725 18.0251L12 16.5229ZM5.81775 2.82338C6.66318 1.98995 7.80371 1.52436 8.99087 1.52804C10.178 1.53172 11.3156 2.00438 12.1559 2.84304C12.9961 3.6817 13.4709 4.81842 13.4769 6.00558C13.4828 7.19273 13.0193 8.33413 12.1875 9.18113L9 12.3004L5.81775 9.18713C4.9739 8.34323 4.49984 7.19868 4.49984 6.00526C4.49984 4.81184 4.9739 3.66729 5.81775 2.82338ZM1.5 9.00038C1.49905 8.87668 1.52918 8.75473 1.58763 8.6457C1.64607 8.53668 1.73096 8.44407 1.8345 8.37638C1.94281 8.3053 2.06758 8.26327 2.19683 8.25434C2.32607 8.24541 2.45544 8.26987 2.5725 8.32538L3.648 8.71388C3.93575 9.2837 4.31219 9.80419 4.76325 10.2559L9 14.4004L13.2428 10.2506C13.6599 9.83405 14.0137 9.35848 14.2928 8.83913L15.9555 9.39488C16.1121 9.43968 16.2499 9.53424 16.348 9.66427C16.4461 9.79431 16.4992 9.95275 16.4993 10.1156V16.0774L12 14.9779L6.015 16.4779L1.5 15.1849V9.00038Z" fill="#408DFB"/>
</g>
<defs>
<clipPath id="clip0_105_560">
<rect width="18" height="18" fill="white"/>
</clipPath>
</defs>
</svg>
