<svg width="18" height="18" viewBox="0 0 18 18" fill="none" xmlns="http://www.w3.org/2000/svg">
<g clip-path="url(#clip0_110_256)">
<path d="M12.75 7.5C9.855 7.5 7.5 9.855 7.5 12.75C7.5 15.645 9.855 18 12.75 18C15.645 18 18 15.645 18 12.75C18 9.855 15.645 7.5 12.75 7.5ZM12.75 16.5C10.68 16.5 9 14.82 9 12.75C9 10.68 10.68 9 12.75 9C14.82 9 16.5 10.68 16.5 12.75C16.5 14.82 14.82 16.5 12.75 16.5ZM13.875 10.875C13.875 11.4975 13.3725 12 12.75 12C12.1275 12 11.625 11.4975 11.625 10.875C11.625 10.2525 12.1275 9.75 12.75 9.75C13.3725 9.75 13.875 10.2525 13.875 10.875ZM13.5 13.5V15C13.5 15.4125 13.1625 15.75 12.75 15.75C12.3375 15.75 12 15.4125 12 15V13.5C12 13.0875 12.3375 12.75 12.75 12.75C13.1625 12.75 13.5 13.0875 13.5 13.5ZM6.75 15.75C6.75 16.1625 6.4125 16.5 6 16.5H3.75C1.68 16.5 0 14.82 0 12.75V3.75C0 1.68 1.68 0 3.75 0H8.07C8.8575 0 9.63 0.3225 10.1925 0.8775L12.6225 3.3075C13.125 3.81 13.4325 4.4775 13.4925 5.1825C13.5225 5.595 13.215 5.955 12.8025 5.9925C12.78 5.9925 12.765 5.9925 12.7425 5.9925C12.3525 5.9925 12.03 5.6925 11.9925 5.3025C11.9925 5.28 11.9925 5.265 11.9925 5.2425H9.7575C8.9325 5.2425 8.2575 4.5675 8.2575 3.7425V1.515C8.1975 1.515 8.1375 1.5 8.0775 1.5H3.75C2.5125 1.5 1.5 2.5125 1.5 3.75V12.75C1.5 13.9875 2.5125 15 3.75 15H6C6.4125 15 6.75 15.3375 6.75 15.75Z" fill="#408DFB"/>
</g>
<defs>
<clipPath id="clip0_110_256">
<rect width="18" height="18" fill="white"/>
</clipPath>
</defs>
</svg>
