<svg width="18" height="18" viewBox="0 0 18 18" fill="none" xmlns="http://www.w3.org/2000/svg">
<g clip-path="url(#clip0_105_575)">
<path d="M7.93672 15.3967C7.22641 16.088 6.27247 16.4719 5.2813 16.4652C4.29013 16.4586 3.34143 16.062 2.64045 15.3612C1.93947 14.6604 1.54259 13.7118 1.53566 12.7206C1.52874 11.7295 1.91234 10.7754 2.60347 10.0649L5.79997 6.86616L4.73872 5.80566L1.54297 9.00441C0.55467 9.99321 -0.000351474 11.3341 1.66988e-07 12.7321C0.000351808 14.1301 0.556048 15.4707 1.54484 16.459C2.53363 17.4473 3.87453 18.0024 5.27254 18.002C6.67056 18.0017 8.01117 17.446 8.99947 16.4572L12.196 13.2607L11.1355 12.2002L7.93672 15.3967Z" fill="#408DFB"/>
<path d="M16.4577 1.54577C15.9697 1.05438 15.3889 0.664727 14.7492 0.399391C14.1095 0.134054 13.4235 -0.00169234 12.7309 1.84806e-05C12.0387 -0.00182032 11.353 0.133577 10.7135 0.398382C10.0739 0.663187 9.49323 1.05215 9.00494 1.54277L5.80469 4.74002L6.86519 5.80127L10.0639 2.60477C10.4131 2.25351 10.8285 1.975 11.286 1.78536C11.7436 1.59573 12.2342 1.49874 12.7294 1.50002C13.4751 1.50027 14.204 1.72159 14.8239 2.13602C15.4439 2.55044 15.927 3.13937 16.2123 3.82833C16.4976 4.5173 16.5722 5.27538 16.4267 6.00675C16.2812 6.73812 15.9222 7.40993 15.3949 7.93727L12.1984 11.1338L13.2597 12.195L16.4562 9.00002C17.4432 8.01084 17.9977 6.6706 17.998 5.2732C17.9982 3.87581 17.4443 2.53534 16.4577 1.54577Z" fill="#408DFB"/>
<path d="M11.1329 5.80654L5.80469 11.1348L6.86535 12.1954L12.1936 6.8672L11.1329 5.80654Z" fill="#408DFB"/>
</g>
<defs>
<clipPath id="clip0_105_575">
<rect width="18" height="18" fill="white"/>
</clipPath>
</defs>
</svg>
