<svg width="18" height="18" viewBox="0 0 18 18" fill="none" xmlns="http://www.w3.org/2000/svg">
<g clip-path="url(#clip0_110_254)">
<path d="M5.87595 12.1274C5.70345 11.9549 5.54145 11.7659 5.3952 11.5664C5.15145 11.2319 5.22495 10.7624 5.5602 10.5186C5.8947 10.2749 6.36345 10.3484 6.60795 10.6829C6.7047 10.8164 6.81345 10.9446 6.9357 11.0661C7.53795 11.6684 8.3382 11.9999 9.18945 11.9999C10.0407 11.9999 10.8417 11.6684 11.4432 11.0661L15.5682 6.9411C16.811 5.69835 16.811 3.6756 15.5682 2.43285C14.3255 1.1901 12.3027 1.1901 11.06 2.43285L10.2665 3.22635C9.9732 3.5196 9.4992 3.5196 9.20595 3.22635C8.9127 2.9331 8.9127 2.4591 9.20595 2.16585L9.99945 1.37235C11.8272 -0.456148 14.801 -0.456148 16.6287 1.37235C18.4565 3.2001 18.4565 6.17385 16.6287 8.0016L12.5037 12.1266C11.6187 13.0124 10.4412 13.4999 9.18945 13.4999C7.9377 13.4999 6.7602 13.0124 5.87595 12.1274ZM4.68945 17.9999C5.94195 17.9999 7.1187 17.5124 8.0037 16.6266L8.7972 15.8331C9.09045 15.5406 9.09045 15.0659 8.7972 14.7726C8.5047 14.4794 8.02995 14.4801 7.7367 14.7726L6.94245 15.5661C6.3402 16.1684 5.53995 16.4999 4.6887 16.4999C3.83745 16.4999 3.0372 16.1684 2.43495 15.5661C1.8327 14.9639 1.5012 14.1636 1.5012 13.3124C1.5012 12.4611 1.8327 11.6601 2.43495 11.0586L6.55995 6.9336C7.1622 6.33135 7.96245 5.99985 8.8137 5.99985C9.66495 5.99985 10.466 6.33135 11.0675 6.9336C11.1875 7.05435 11.297 7.1826 11.3945 7.3161C11.6375 7.65135 12.1062 7.72635 12.4422 7.48185C12.7775 7.2381 12.8517 6.76935 12.608 6.4341C12.4655 6.2376 12.3042 6.04935 12.1287 5.87385C11.243 4.98735 10.0655 4.49985 8.8137 4.49985C7.56195 4.49985 6.38445 4.98735 5.49945 5.8731L1.3752 9.9981C0.489453 10.8831 0.00195312 12.0606 0.00195312 13.3124C0.00195312 14.5641 0.489453 15.7416 1.3752 16.6266C2.2602 17.5124 3.43695 17.9999 4.68945 17.9999Z" fill="#408DFB"/>
</g>
<defs>
<clipPath id="clip0_110_254">
<rect width="18" height="18" fill="white"/>
</clipPath>
</defs>
</svg>
