<svg width="18" height="18" viewBox="0 0 18 18" fill="none" xmlns="http://www.w3.org/2000/svg">
<g clip-path="url(#clip0_110_233)">
<path d="M15.75 1.5H13.5V0H12V1.5H6V0H4.5V1.5H2.25C1.0095 1.5 0 2.5095 0 3.75V18H18V3.75C18 2.5095 16.9905 1.5 15.75 1.5ZM2.25 3H15.75C16.164 3 16.5 3.33675 16.5 3.75V6H1.5V3.75C1.5 3.33675 1.836 3 2.25 3ZM1.5 16.5V7.5H16.5V16.5H1.5ZM3.75 9.75H14.25V11.25H3.75V9.75ZM3.75 12.75H9V14.25H3.75V12.75Z" fill="#408DFB"/>
</g>
<defs>
<clipPath id="clip0_110_233">
<rect width="18" height="18" fill="white"/>
</clipPath>
</defs>
</svg>
