<svg width="18" height="18" viewBox="0 0 18 18" fill="none" xmlns="http://www.w3.org/2000/svg">
<g clip-path="url(#clip0_110_222)">
<path d="M15.75 1.5H13.5V0H12V1.5H6V0H4.5V1.5H2.25C1.0095 1.5 0 2.5095 0 3.75V18H18V3.75C18 2.5095 16.9905 1.5 15.75 1.5ZM16.5 16.5H1.5V7.5H16.5V16.5ZM16.5 6H1.5V3.75C1.5 3.33675 1.836 3 2.25 3H15.75C16.164 3 16.5 3.33675 16.5 3.75V6ZM6.8145 14.5605L4.728 12.5385L5.77275 11.4608L7.8675 13.491L12.2242 9.21525L13.2772 10.284L8.9325 14.5643C8.64225 14.8545 8.2605 14.9993 7.87725 14.9993C7.494 14.9993 7.10775 14.853 6.8145 14.5605Z" fill="#408DFB"/>
</g>
<defs>
<clipPath id="clip0_110_222">
<rect width="18" height="18" fill="white"/>
</clipPath>
</defs>
</svg>
