<svg width="18" height="18" viewBox="0 0 18 18" fill="none" xmlns="http://www.w3.org/2000/svg">
<g clip-path="url(#clip0_85_161)">
<path d="M9 0C4.03725 0 0 4.03725 0 9C0 13.9628 4.03725 18 9 18C13.9628 18 18 13.9628 18 9C18 4.03725 13.9628 0 9 0ZM9 16.5C4.8645 16.5 1.5 13.1355 1.5 9C1.5 4.8645 4.8645 1.5 9 1.5C13.1355 1.5 16.5 4.8645 16.5 9C16.5 13.1355 13.1355 16.5 9 16.5ZM12 5.379V4.5C12 4.08525 11.6648 3.75 11.25 3.75C10.8352 3.75 10.5 4.08525 10.5 4.5V5.25H7.5V4.5C7.5 4.08525 7.16475 3.75 6.75 3.75C6.33525 3.75 6 4.08525 6 4.5V5.379C5.127 5.68875 4.5 6.522 4.5 7.5V10.5C4.5 11.7405 5.5095 12.75 6.75 12.75H11.25C12.4905 12.75 13.5 11.7405 13.5 10.5V7.5C13.5 6.522 12.873 5.68875 12 5.379ZM11.25 11.25H6.75C6.336 11.25 6 10.914 6 10.5V8.25H12V10.5C12 10.914 11.664 11.25 11.25 11.25Z" fill="#408dfb"/>
</g>
<defs>
<clipPath id="clip0_85_161">
<rect width="18" height="18" fill="white"/>
</clipPath>
</defs>
</svg>
