<svg width="18" height="18" viewBox="0 0 18 18" fill="none" xmlns="http://www.w3.org/2000/svg">
<g clip-path="url(#clip0_125_428)">
<path d="M14.25 3H13.425C13.08 1.29 11.565 0 9.75 0H3.75C1.68 0 0 1.68 0 3.75V13.395C0 13.9875 0.3225 14.535 0.8475 14.8125C1.0875 14.94 1.35 15 1.605 15C1.92 15 2.2275 14.91 2.4975 14.73L4.725 13.245C5.2425 14.7 6.615 15.75 8.2425 15.75H12.5175L15.4875 17.73C15.7575 17.91 16.065 18 16.38 18C16.6425 18 16.905 17.94 17.1375 17.8125C17.6625 17.535 17.985 16.9875 17.985 16.395V6.75C17.985 4.68 16.305 3 14.235 3H14.25ZM1.6725 13.485C1.6725 13.485 1.62 13.5225 1.56 13.485C1.5 13.455 1.5 13.4025 1.5 13.3875V3.75C1.5 2.5125 2.5125 1.5 3.75 1.5H9.75C10.9875 1.5 12 2.5125 12 3.75V9C12 10.2375 10.9875 11.25 9.75 11.25H5.25C5.1 11.25 4.9575 11.295 4.8375 11.3775L1.68 13.485H1.6725ZM16.5 16.395C16.5 16.395 16.5 16.4625 16.44 16.4925C16.38 16.5225 16.3425 16.4925 16.3275 16.4925L13.17 14.385C13.05 14.3025 12.9 14.2575 12.7575 14.2575H8.2575C7.2825 14.2575 6.4575 13.6275 6.1425 12.7575H9.7575C11.8275 12.7575 13.5075 11.0775 13.5075 9.0075V4.5H14.2575C15.495 4.5 16.5075 5.5125 16.5075 6.75V16.395H16.5ZM5.7975 9.75C4.995 9.75 4.2525 9.3225 3.8475 8.625C3.6375 8.265 3.765 7.8075 4.1175 7.5975C4.4775 7.3875 4.935 7.515 5.145 7.8675C5.28 8.1 5.5275 8.2425 5.7975 8.2425H7.7775C8.0325 8.2425 8.2425 8.0325 8.2425 7.7775C8.2425 7.545 8.0775 7.35 7.8525 7.3125L5.385 6.9C4.4325 6.7425 3.7425 5.925 3.7425 4.9575C3.7425 3.87 4.6275 2.9925 5.7075 2.9925H5.9925C5.9925 2.58 6.33 2.2425 6.7425 2.2425C7.155 2.2425 7.4925 2.58 7.4925 2.9925H7.695C8.4975 2.9925 9.24 3.42 9.645 4.1175C9.855 4.4775 9.7275 4.935 9.375 5.145C9.015 5.355 8.5575 5.2275 8.3475 4.875C8.2125 4.6425 7.965 4.5 7.695 4.5H5.715C5.46 4.5 5.25 4.71 5.25 4.965C5.25 5.1975 5.415 5.385 5.64 5.43L8.1 5.8425C9.0525 6 9.7425 6.8175 9.7425 7.785C9.7425 8.8725 8.8575 9.75 7.7775 9.75H7.4925C7.4925 10.1625 7.155 10.5 6.7425 10.5C6.33 10.5 5.9925 10.1625 5.9925 9.75H5.79H5.7975Z" fill="#408DFB"/>
</g>
<defs>
<clipPath id="clip0_125_428">
<rect width="18" height="18" fill="white"/>
</clipPath>
</defs>
</svg>
