<svg width="18" height="18" viewBox="0 0 18 18" fill="none" xmlns="http://www.w3.org/2000/svg">
<g clip-path="url(#clip0_105_562)">
<path d="M17.9993 17.2502C17.9993 17.4491 17.9202 17.6398 17.7796 17.7805C17.6389 17.9211 17.4482 18.0002 17.2493 18.0002H0.749256C0.550343 18.0002 0.359578 17.9211 0.218925 17.7805C0.0782732 17.6398 -0.000744472 17.4491 -0.000744472 17.2502C-0.000744472 17.0513 0.0782732 16.8605 0.218925 16.7198C0.359578 16.5792 0.550343 16.5002 0.749256 16.5002H17.2493C17.4482 16.5002 17.6389 16.5792 17.7796 16.7198C17.9202 16.8605 17.9993 17.0513 17.9993 17.2502ZM0.217506 6.41416C0.0558973 6.11441 -0.0189735 5.77554 0.00129585 5.4356C0.0215652 5.09566 0.136172 4.76809 0.332256 4.48966C0.652699 4.0195 1.08184 3.63358 1.58326 3.36466L7.20901 0.436663C7.76195 0.149137 8.37602 -0.000976563 8.99926 -0.000976562C9.62249 -0.000976563 10.2366 0.149137 10.7895 0.436663L16.4145 3.36691C16.9159 3.63583 17.3451 4.02175 17.6655 4.49191C17.8616 4.77034 17.9762 5.09791 17.9965 5.43785C18.0167 5.77779 17.9419 6.11666 17.7803 6.41641C17.6063 6.74554 17.3453 7.02062 17.0258 7.2117C16.7063 7.40279 16.3405 7.50257 15.9683 7.50016H15.7493V13.5002H16.4993C16.6982 13.5002 16.8889 13.5792 17.0296 13.7198C17.1702 13.8605 17.2493 14.0513 17.2493 14.2502C17.2493 14.4491 17.1702 14.6398 17.0296 14.7805C16.8889 14.9211 16.6982 15.0002 16.4993 15.0002H1.49926C1.30034 15.0002 1.10958 14.9211 0.968925 14.7805C0.828273 14.6398 0.749256 14.4491 0.749256 14.2502C0.749256 14.0513 0.828273 13.8605 0.968925 13.7198C1.10958 13.5792 1.30034 13.5002 1.49926 13.5002H2.24926V7.50016H2.03026C1.65762 7.50249 1.29151 7.40244 0.971847 7.21094C0.652184 7.01943 0.39125 6.74382 0.217506 6.41416ZM3.74926 13.5002H5.99926V7.50016H3.74926V13.5002ZM7.49926 7.50016V13.5002H10.4993V7.50016H7.49926ZM14.2493 7.50016H11.9993V13.5002H14.2493V7.50016ZM1.54651 5.71891C1.59356 5.80567 1.66359 5.87781 1.74892 5.92742C1.83424 5.97702 1.93158 6.00219 2.03026 6.00016H15.9683C16.0669 6.00219 16.1643 5.97702 16.2496 5.92742C16.3349 5.87781 16.4049 5.80567 16.452 5.71891C16.4863 5.66159 16.5029 5.59541 16.4997 5.52869C16.4965 5.46198 16.4736 5.39769 16.434 5.34391C16.2523 5.07385 16.0081 4.85157 15.7223 4.69591L10.0973 1.76566C9.75826 1.58973 9.38193 1.49789 9.00001 1.49789C8.61808 1.49789 8.24175 1.58973 7.90276 1.76566L2.27776 4.69591C1.99199 4.85207 1.7479 5.07456 1.56601 5.34466C1.52632 5.39822 1.50331 5.46228 1.49984 5.52885C1.49637 5.59541 1.5126 5.66152 1.54651 5.71891Z" fill="#408DFB"/>
</g>
<defs>
<clipPath id="clip0_105_562">
<rect width="18" height="18" fill="white"/>
</clipPath>
</defs>
</svg>
