<svg width="18" height="18" viewBox="0 0 18 18" fill="none" xmlns="http://www.w3.org/2000/svg">
<path d="M8.99916 0.00488281C7.51524 0.00505031 6.06473 0.44541 4.83117 1.27024C3.59761 2.09506 2.63646 3.26728 2.06934 4.63855C1.50222 6.00982 1.35462 7.5185 1.64523 8.97368C1.93584 10.4289 2.65159 11.7651 3.70191 12.8134L7.47066 16.4996H3.74916V17.9996H14.2492V16.4996H10.5277L14.3024 12.8074C15.351 11.7585 16.0651 10.4222 16.3543 8.96744C16.6436 7.51272 16.495 6.00491 15.9274 4.63463C15.3597 3.26435 14.3986 2.09313 13.1654 1.26906C11.9322 0.444983 10.4823 0.00505121 8.99916 0.00488281ZM13.2479 11.7409L8.99916 15.8996L4.75641 11.7469C3.91758 10.908 3.34625 9.8393 3.11463 8.67582C2.88301 7.51234 3.00149 6.3063 3.4551 5.21014C3.90871 4.11398 4.67709 3.17688 5.66313 2.51728C6.64917 1.85769 7.80861 1.5052 8.99492 1.50436C10.1812 1.50352 11.3412 1.85437 12.3281 2.51257C13.3151 3.17078 14.0848 4.10678 14.54 5.20231C14.9951 6.29783 15.1153 7.50369 14.8853 8.6675C14.6554 9.83131 14.0855 10.9008 13.2479 11.7409ZM5.24916 4.78613V9.46313L8.99916 11.3381L12.7492 9.46313V4.78613L8.99916 2.91113L5.24916 4.78613ZM11.2492 8.53613L8.99916 9.66113L6.74916 8.53613V5.71313L6.83766 5.66888L8.99916 6.74963L11.1607 5.66888L11.2492 5.71313V8.53613Z" fill="#408DFB"/>
</svg>
