<svg width="18" height="18" viewBox="0 0 18 18" fill="none" xmlns="http://www.w3.org/2000/svg">
<path d="M0.80025 11.5579L2.3565 12.6656C3.153 13.2319 4.09425 13.5206 5.0355 13.5206C5.70525 13.5206 6.37575 13.3744 6.9945 13.0781L16.7092 8.80463C17.8237 8.27213 18.309 6.92663 17.79 5.80463C17.2695 4.68188 15.9337 4.19063 14.808 4.70588L12.4508 5.75738L7.4865 2.69288C6.825 2.20088 5.949 2.11238 5.1975 2.45963L4.61175 2.73413C4.1535 2.94938 3.837 3.37688 3.765 3.87788C3.693 4.37963 3.876 4.87913 4.2555 5.21513L7.4085 8.00513L4.71525 9.20663L2.4225 8.36513C1.6845 8.09588 0.8595 8.33438 0.37125 8.95838C0.07725 9.33413 -0.04575 9.80738 0.02475 10.2904C0.099 10.7981 0.381 11.2594 0.7995 11.5564L0.80025 11.5579ZM5.25 4.09238L5.832 3.81938C6.081 3.70388 6.37275 3.73463 6.64575 3.93263L10.794 6.49613L8.9145 7.33463L5.25 4.09238ZM1.55325 9.88388C1.62675 9.79013 1.72125 9.75713 1.80375 9.75713C1.84125 9.75713 4.48425 10.7209 4.48425 10.7209C4.668 10.7884 4.8705 10.7816 5.04825 10.7021L15.423 6.07388L15.4327 6.06938C15.8085 5.89613 16.2548 6.06038 16.4288 6.43463C16.6042 6.81488 16.4408 7.27013 16.0837 7.44113L6.369 11.7146C5.35125 12.1999 4.146 12.0971 3.22575 11.4431L1.6695 10.3361C1.584 10.2754 1.52475 10.1779 1.50975 10.0751C1.4985 9.99863 1.5135 9.93488 1.55325 9.88388ZM18 17.2496C18 17.6644 17.664 17.9996 17.25 17.9996H0.75C0.336 17.9996 0 17.6644 0 17.2496C0 16.8349 0.336 16.4996 0.75 16.4996H17.25C17.664 16.4996 18 16.8349 18 17.2496Z" fill="#408DFB"/>
</svg>
