<svg width="18" height="18" viewBox="0 0 18 18" fill="none" xmlns="http://www.w3.org/2000/svg">
<g clip-path="url(#clip0_85_140)">
<path d="M18 7.50052V12.0005C18 14.0683 16.3177 15.7505 14.25 15.7505H9.75V16.5005H12C12.4148 16.5005 12.75 16.8358 12.75 17.2505C12.75 17.6653 12.4148 18.0005 12 18.0005H6C5.58525 18.0005 5.25 17.6653 5.25 17.2505C5.25 16.8358 5.58525 16.5005 6 16.5005H8.25V15.7505H3.75C1.68225 15.7505 0 14.0683 0 12.0005V7.50052C0 5.78827 1.1565 4.29501 2.81325 3.86901C3.2115 3.76851 3.62325 4.00701 3.72675 4.40826C3.83025 4.80951 3.588 5.21827 3.18675 5.32101C2.19375 5.57677 1.5 6.47302 1.5 7.50052V12.0005C1.5 13.241 2.5095 14.2505 3.75 14.2505H14.25C15.4905 14.2505 16.5 13.241 16.5 12.0005V7.50052C16.5 6.47302 15.8062 5.57677 14.8132 5.32101C14.412 5.21827 14.1705 4.80876 14.2733 4.40826C14.3767 4.00701 14.79 3.76776 15.1868 3.86901C16.8435 4.29501 18 5.78827 18 7.50052ZM4.728 6.85102L5.44275 6.43852C5.3175 6.06501 5.25 5.66602 5.25 5.25127C5.25 4.83651 5.31825 4.43677 5.44275 4.06401L4.728 3.65151C4.36875 3.44451 4.24575 2.98551 4.4535 2.62701C4.6605 2.26776 5.1195 2.14476 5.478 2.35251L6.195 2.76651C6.7245 2.17026 7.44 1.74276 8.25 1.57776V0.752014C8.25 0.338014 8.58525 0.00201416 9 0.00201416C9.41475 0.00201416 9.75 0.338014 9.75 0.752014V1.57776C10.56 1.74276 11.2762 2.17026 11.805 2.76651L12.522 2.35251C12.879 2.14476 13.3387 2.26776 13.5465 2.62701C13.7535 2.98626 13.6305 3.44451 13.272 3.65151L12.5573 4.06401C12.6825 4.43752 12.75 4.83651 12.75 5.25127C12.75 5.66602 12.6818 6.06576 12.5573 6.43852L13.272 6.85102C13.6312 7.05802 13.7543 7.51702 13.5465 7.87552C13.407 8.11627 13.1557 8.25052 12.8962 8.25052C12.7688 8.25052 12.6397 8.21827 12.522 8.15002L11.805 7.73602C11.2755 8.33227 10.56 8.75977 9.75 8.92477V9.75052C9.75 10.1653 9.41475 10.5005 9 10.5005C8.58525 10.5005 8.25 10.1653 8.25 9.75052V8.92477C7.44 8.75977 6.72375 8.33227 6.195 7.73602L5.478 8.15002C5.36025 8.21827 5.23125 8.25052 5.10375 8.25052C4.84425 8.25052 4.59225 8.11627 4.4535 7.87552C4.2465 7.51627 4.3695 7.05802 4.728 6.85102ZM6.75 5.25051C6.75 6.49102 7.7595 7.50052 9 7.50052C10.2405 7.50052 11.25 6.49102 11.25 5.25051C11.25 4.01002 10.2405 3.00051 9 3.00051C7.7595 3.00051 6.75 4.01002 6.75 5.25051Z" fill="#408dfb"/>
<path d="M9 6.375C9.621 6.375 10.125 5.871 10.125 5.25C10.125 4.629 9.621 4.125 9 4.125C8.379 4.125 7.875 4.629 7.875 5.25C7.875 5.871 8.379 6.375 9 6.375Z" fill="#408dfb"/>
</g>
<defs>
<clipPath id="clip0_85_140">
<rect width="18" height="18" fill="white"/>
</clipPath>
</defs>
</svg>
