<svg width="18" height="18" viewBox="0 0 18 18" fill="none" xmlns="http://www.w3.org/2000/svg">
<g clip-path="url(#clip0_110_258)">
<path d="M16.5431 3.92273L11.0126 1.28798C9.79525 0.560805 8.28001 0.547903 7.05039 1.25423L1.45766 3.92273C1.43667 3.93324 1.41491 3.94449 1.39466 3.95648C0.0674441 4.71536 -0.393314 6.40648 0.365569 7.7337C0.622807 8.18363 1.00119 8.55228 1.45766 8.79774L3.00042 9.53275V13.2077C3.00134 14.851 4.07062 16.3029 5.63968 16.7913C6.73159 17.1071 7.8638 17.2618 9.00044 17.2502C10.1369 17.263 11.2691 17.1096 12.3612 16.795C13.9303 16.3067 14.9995 14.8548 15.0004 13.2115V9.53124L16.5005 8.81423V15.0002C16.5005 15.4144 16.8362 15.7502 17.2504 15.7502C17.6647 15.7502 18.0004 15.4144 18.0004 15.0002V6.00022C18.0054 5.11952 17.31 4.30593 16.5431 3.92273ZM13.5004 13.2115C13.5008 14.1944 12.8631 15.0639 11.9254 15.3587C10.9746 15.6304 9.98924 15.7623 9.0004 15.7502C8.01156 15.7623 7.02624 15.6304 6.0754 15.3587C5.13775 15.0638 4.50001 14.1944 4.5004 13.2115V10.2475L6.98816 11.4325C7.60199 11.797 8.30304 11.9886 9.01692 11.9868C9.69642 11.9916 10.3645 11.8117 10.9497 11.4663L13.5004 10.2475V13.2115ZM15.9004 7.44398L10.2439 10.144C9.45522 10.6032 8.47763 10.5902 7.70141 10.1102L2.16715 7.47773C1.55026 7.14508 1.31985 6.37533 1.6525 5.75848C1.765 5.54986 1.93368 5.37693 2.13941 5.25923L7.76065 2.57424C8.54959 2.11601 9.52666 2.12898 10.3032 2.60799L15.8337 5.24274C16.2404 5.46858 16.4948 5.89506 16.5004 6.36025C16.5011 6.8009 16.2742 7.21068 15.9004 7.44398Z" fill="#408DFB"/>
</g>
<defs>
<clipPath id="clip0_110_258">
<rect width="18" height="18" fill="white"/>
</clipPath>
</defs>
</svg>
