<svg width="18" height="18" viewBox="0 0 18 18" fill="none" xmlns="http://www.w3.org/2000/svg">
<g clip-path="url(#clip0_125_432)">
<path d="M15.75 4.5H3.75C3.10575 4.5 2.496 4.221 2.07375 3.75075C2.48625 3.29025 3.0855 3 3.75 3H17.25C17.6647 3 18 2.664 18 2.25C18 1.836 17.6647 1.5 17.25 1.5H3.75C1.67925 1.5 0 3.17925 0 5.25V12.75C0 14.8208 1.67925 16.5 3.75 16.5H15.75C16.9928 16.5 18 15.4928 18 14.25V6.75C18 5.50725 16.9928 4.5 15.75 4.5ZM16.5 14.25C16.5 14.6633 16.164 15 15.75 15H3.75C2.5095 15 1.5 13.9905 1.5 12.75V5.2485C2.1405 5.72775 2.928 6 3.75 6H15.75C16.164 6 16.5 6.33675 16.5 6.75V14.25ZM15 10.5C15 10.914 14.664 11.25 14.25 11.25C13.836 11.25 13.5 10.914 13.5 10.5C13.5 10.086 13.836 9.75 14.25 9.75C14.664 9.75 15 10.086 15 10.5Z" fill="#408DFB"/>
</g>
<defs>
<clipPath id="clip0_125_432">
<rect width="18" height="18" fill="white"/>
</clipPath>
</defs>
</svg>
