<svg width="18" height="18" viewBox="0 0 18 18" fill="none" xmlns="http://www.w3.org/2000/svg">
<g clip-path="url(#clip0_125_421)">
<path d="M15.75 0H2.25C1.0095 0 0 1.0095 0 2.25V18H12.3105L18 12.3105V2.25C18 1.0095 16.9905 0 15.75 0ZM1.5 2.25C1.5 1.836 1.83675 1.5 2.25 1.5H15.75C16.1632 1.5 16.5 1.836 16.5 2.25V11.25H11.25V16.5H1.5V2.25ZM15.4395 12.75L12.75 15.4395V12.75H15.4395ZM3 4.875C3 4.254 3.504 3.75 4.125 3.75C4.746 3.75 5.25 4.254 5.25 4.875C5.25 5.496 4.746 6 4.125 6C3.504 6 3 5.496 3 4.875ZM5.25 9C5.25 9.621 4.746 10.125 4.125 10.125C3.504 10.125 3 9.621 3 9C3 8.379 3.504 7.875 4.125 7.875C4.746 7.875 5.25 8.379 5.25 9ZM5.25 13.125C5.25 13.746 4.746 14.25 4.125 14.25C3.504 14.25 3 13.746 3 13.125C3 12.504 3.504 12 4.125 12C4.746 12 5.25 12.504 5.25 13.125Z" fill="#408DFB"/>
</g>
<defs>
<clipPath id="clip0_125_421">
<rect width="18" height="18" fill="white"/>
</clipPath>
</defs>
</svg>
