<svg width="18" height="18" viewBox="0 0 18 18" fill="none" xmlns="http://www.w3.org/2000/svg">
<g clip-path="url(#clip0_125_416)">
<path d="M9 7.50048C7.98853 7.50015 6.97954 7.60065 5.988 7.80048L5.9835 6.08673L9.74025 4.52973C9.96908 4.41346 10.1642 4.24041 10.3071 4.02714C10.4499 3.81387 10.5356 3.56752 10.556 3.31165C10.5764 3.05579 10.5308 2.79897 10.4235 2.56577C10.3163 2.33257 10.151 2.13079 9.9435 1.97973C9.91969 1.96172 9.89463 1.94543 9.8685 1.93098L6.675 0.159481C6.4462 0.044189 6.19169 -0.0105779 5.93572 0.00040166C5.67975 0.0113812 5.43086 0.0877411 5.21277 0.222202C4.99469 0.356663 4.81468 0.544742 4.6899 0.76851C4.56513 0.992279 4.49975 1.24428 4.5 1.50048V8.18598C1.79325 9.08223 0 10.7705 0 12.7505C0 15.6942 3.95325 18.0005 9 18.0005C14.0468 18.0005 18 15.6942 18 12.7505C18 9.80673 14.0468 7.50048 9 7.50048ZM9.05475 3.19173L5.97975 4.46673L5.97225 1.48848L9.05475 3.19173ZM9 16.5005C4.935 16.5005 1.5 14.783 1.5 12.7505C1.5 11.555 2.69325 10.4712 4.5 9.77898V12.7505C4.5 12.9494 4.57902 13.1402 4.71967 13.2808C4.86032 13.4215 5.05109 13.5005 5.25 13.5005C5.44891 13.5005 5.63968 13.4215 5.78033 13.2808C5.92098 13.1402 6 12.9494 6 12.7505L5.99175 9.33048C6.97921 9.10958 7.98813 8.99891 9 9.00048C13.065 9.00048 16.5 10.718 16.5 12.7505C16.5 14.783 13.065 16.5005 9 16.5005ZM12.75 12.7505C12.75 13.0472 12.662 13.3372 12.4972 13.5838C12.3324 13.8305 12.0981 14.0228 11.824 14.1363C11.5499 14.2498 11.2483 14.2795 10.9574 14.2217C10.6664 14.1638 10.3991 14.0209 10.1893 13.8111C9.97956 13.6014 9.8367 13.3341 9.77882 13.0431C9.72094 12.7521 9.75065 12.4505 9.86418 12.1765C9.97771 11.9024 10.17 11.6681 10.4166 11.5033C10.6633 11.3385 10.9533 11.2505 11.25 11.2505C11.6478 11.2505 12.0294 11.4085 12.3107 11.6898C12.592 11.9711 12.75 12.3527 12.75 12.7505Z" fill="#408DFB"/>
</g>
<defs>
<clipPath id="clip0_125_416">
<rect width="18" height="18" fill="white"/>
</clipPath>
</defs>
</svg>
