<svg width="18" height="18" viewBox="0 0 18 18" fill="none" xmlns="http://www.w3.org/2000/svg">
<g clip-path="url(#clip0_125_439)">
<path d="M15.75 13.5944V9.74993C15.75 6.02768 12.7222 2.99993 8.99996 2.99993C5.27771 2.99993 2.24996 6.02768 2.24996 9.74993V13.5944C0.956956 13.9282 -4.36901e-05 15.1042 -4.36901e-05 16.4999C-4.36901e-05 17.3272 0.672706 17.9999 1.49996 17.9999H16.5C17.3272 17.9999 18 17.3272 18 16.4999C18 15.1042 17.043 13.9282 15.75 13.5944ZM8.99996 4.49993C11.8942 4.49993 14.25 6.85568 14.25 9.74993V13.4999H3.74996V9.74993C3.74996 6.85568 6.10571 4.49993 8.99996 4.49993ZM1.49996 16.4999C1.49996 15.6727 2.17271 14.9999 2.99996 14.9999H15C15.8272 14.9999 16.5 15.6727 16.5 16.4999H1.49996ZM15.5977 4.65818C15.303 4.36643 15.3007 3.89243 15.5917 3.59768L16.7167 2.45993C17.0077 2.16518 17.4825 2.16293 17.7772 2.45393C18.072 2.74568 18.0742 3.21968 17.7832 3.51443L16.6582 4.65218C16.512 4.80068 16.3185 4.87493 16.125 4.87493C15.9345 4.87493 15.744 4.80218 15.5977 4.65818ZM12.459 1.52993L13.0417 0.404927C13.2322 0.0359274 13.686 -0.106573 14.0527 0.0839274C14.4202 0.274427 14.5642 0.726677 14.3737 1.09493L13.791 2.21993C13.6575 2.47793 13.3957 2.62493 13.1242 2.62493C13.008 2.62493 12.8902 2.59793 12.78 2.54093C12.4125 2.35043 12.2685 1.89818 12.459 1.52993ZM0.216706 3.51518C-0.0750437 3.22043 -0.0720437 2.74643 0.222706 2.45468C0.516706 2.16293 0.992956 2.16593 1.28321 2.46068L2.40821 3.59843C2.69996 3.89318 2.69696 4.36718 2.40221 4.65893C2.25671 4.80293 2.06546 4.87568 1.87496 4.87568C1.68146 4.87568 1.48796 4.80143 1.34171 4.65293L0.216706 3.51518ZM3.62621 1.09493C3.43571 0.727427 3.57971 0.274427 3.94721 0.0839274C4.31246 -0.106573 4.76696 0.0359274 4.95821 0.404927L5.54096 1.52993C5.73146 1.89743 5.58746 2.35043 5.21996 2.54093C5.11046 2.59793 4.99196 2.62493 4.87571 2.62493C4.60496 2.62493 4.34246 2.47793 4.20896 2.21993L3.62621 1.09493ZM5.99996 9.74993C5.99996 8.09543 7.34546 6.74993 8.99996 6.74993C9.41471 6.74993 9.74996 7.08518 9.74996 7.49993C9.74996 7.91468 9.41471 8.24993 8.99996 8.24993C8.17271 8.24993 7.49996 8.92268 7.49996 9.74993C7.49996 10.1647 7.16471 10.4999 6.74996 10.4999C6.33521 10.4999 5.99996 10.1647 5.99996 9.74993Z" fill="#408DFB"/>
</g>
<defs>
<clipPath id="clip0_125_439">
<rect width="18" height="18" fill="white"/>
</clipPath>
</defs>
</svg>
