<svg width="18" height="18" viewBox="0 0 18 18" fill="none" xmlns="http://www.w3.org/2000/svg">
<g clip-path="url(#clip0_125_430)">
<path d="M15.375 12.75C15.375 13.1648 15.0398 13.5 14.625 13.5H13.5V14.625C13.5 15.0398 13.1648 15.375 12.75 15.375C12.3352 15.375 12 15.0398 12 14.625V13.5H10.875C10.4602 13.5 10.125 13.1648 10.125 12.75C10.125 12.3352 10.4602 12 10.875 12H12V10.875C12 10.4602 12.3352 10.125 12.75 10.125C13.1648 10.125 13.5 10.4602 13.5 10.875V12H14.625C15.0398 12 15.375 12.3352 15.375 12.75ZM18 12.75C18 15.6442 15.6442 18 12.75 18C9.85575 18 7.5 15.6442 7.5 12.75C7.5 9.85575 9.85575 7.5 12.75 7.5C15.6442 7.5 18 9.85575 18 12.75ZM16.5 12.75C16.5 10.6823 14.8177 9 12.75 9C10.6823 9 9 10.6823 9 12.75C9 14.8177 10.6823 16.5 12.75 16.5C14.8177 16.5 16.5 14.8177 16.5 12.75ZM3.75 3.75C4.78575 3.75 5.625 2.91075 5.625 1.875C5.625 0.83925 4.78575 0 3.75 0C2.71425 0 1.875 0.83925 1.875 1.875C1.875 2.91075 2.71425 3.75 3.75 3.75ZM6 12.3472V17.25C6 17.6647 5.66475 18 5.25 18C4.83525 18 4.5 17.6647 4.5 17.25V12.75H3V17.25C3 17.6647 2.66475 18 2.25 18C1.83525 18 1.5 17.6647 1.5 17.25V12.3472C0.60375 11.8275 0 10.8585 0 9.75V7.5C0 5.8455 1.3455 4.5 3 4.5H4.5C6.1545 4.5 7.5 5.8455 7.5 7.5V9.75C7.5 10.8585 6.89625 11.8282 6 12.3472ZM6 7.5C6 6.67275 5.32725 6 4.5 6H3C2.17275 6 1.5 6.67275 1.5 7.5V9.75C1.5 10.5773 2.17275 11.25 3 11.25H4.5C5.32725 11.25 6 10.5773 6 9.75V7.5Z" fill="#408DFB"/>
</g>
<defs>
<clipPath id="clip0_125_430">
<rect width="18" height="18" fill="white"/>
</clipPath>
</defs>
</svg>
