<svg width="18" height="18" viewBox="0 0 18 18" fill="none" xmlns="http://www.w3.org/2000/svg">
<g clip-path="url(#clip0_125_399)">
<path d="M11.2905 1.87503C11.2905 0.839283 12.1298 3.28145e-05 13.1655 3.28145e-05C14.2013 3.28145e-05 15.0405 0.839283 15.0405 1.87503C15.0405 2.91078 14.2013 3.75003 13.1655 3.75003C12.1298 3.75003 11.2905 2.91078 11.2905 1.87503ZM6 11.25H3C2.17275 11.25 1.5 10.5773 1.5 9.75003V5.74653C1.5 5.04978 1.81425 4.40403 2.36325 3.97503L4.85625 2.02428C5.65275 1.40103 6.7335 1.32453 7.572 1.80903L8.6355 2.50353C8.98275 2.72928 9.447 2.63253 9.6735 2.28528C9.9 1.93878 9.8025 1.47378 9.45525 1.24728L8.35725 0.531033C6.94875 -0.281967 5.21175 -0.159717 3.9315 0.842283L1.4385 2.79303C0.52425 3.50928 0 4.58553 0 5.74653V9.75003C0 11.4045 1.3455 12.75 3 12.75H6C6.414 12.75 6.75 12.414 6.75 12C6.75 11.586 6.414 11.25 6 11.25ZM3.75 6.75003C3.336 6.75003 3 7.08603 3 7.50003V8.25003C3 8.66403 3.336 9.00003 3.75 9.00003H4.5C4.914 9.00003 5.25 8.66403 5.25 8.25003V7.50003C5.25 7.08603 4.914 6.75003 4.5 6.75003H3.75ZM17.8785 10.5345C17.652 10.8818 17.1893 10.9808 16.8405 10.7535L15.0413 9.58053V12.4808L15.5317 12.8048C16.164 13.2233 16.5413 13.9245 16.5413 14.6813V17.25C16.5413 17.664 16.2052 18 15.7913 18C15.3773 18 15.0413 17.664 15.0413 17.25V14.6813C15.0413 14.4293 14.9153 14.1953 14.7045 14.0558L11.517 11.9483C10.899 11.5163 10.5405 10.827 10.5405 10.0935V7.24503L9.3675 8.04678C9.1635 8.18703 9.0405 8.41803 9.0405 8.66628V10.4993C9.0405 10.9133 8.7045 11.2493 8.2905 11.2493C7.8765 11.2493 7.5405 10.9133 7.5405 10.4993V8.66628C7.5405 7.92228 7.90725 7.22778 8.5215 6.80853L10.9522 5.14728C11.178 4.94253 11.781 4.51203 12.8625 4.51203C13.7828 4.51203 14.7105 5.16828 14.9948 6.01278C15.0037 6.03828 15.519 7.87878 15.519 7.87878C15.5677 8.05353 15.6795 8.20578 15.8317 8.30478L17.6603 9.49653C18.0068 9.72303 18.105 10.1873 17.8792 10.5345H17.8785ZM13.5405 6.41103C13.431 6.21153 13.113 6.01203 12.8625 6.01203C12.4132 6.01203 12.1568 6.12678 12.0405 6.19803V10.0928C12.0405 10.3373 12.1605 10.5668 12.3608 10.7078L13.5405 11.4878V6.41103ZM11.6805 13.5563C11.298 13.4003 10.8593 13.5825 10.7017 13.9658L9.471 16.9658C9.31425 17.349 9.49725 17.787 9.8805 17.9445C9.9735 17.9828 10.0695 18.0008 10.1648 18.0008C10.4602 18.0008 10.74 17.8253 10.8593 17.535L12.09 14.535C12.2468 14.1518 12.0638 13.7138 11.6805 13.5563Z" fill="#408DFB"/>
</g>
<defs>
<clipPath id="clip0_125_399">
<rect width="18" height="18" fill="white"/>
</clipPath>
</defs>
</svg>
