<svg width="18" height="18" viewBox="0 0 18 18" fill="none" xmlns="http://www.w3.org/2000/svg">
<g clip-path="url(#clip0_125_437)">
<path d="M14.25 3.75H12V3C12 2.40326 11.7629 1.83097 11.341 1.40901C10.919 0.987053 10.3467 0.75 9.75 0.75H8.25C7.65326 0.75 7.08097 0.987053 6.65901 1.40901C6.23705 1.83097 6 2.40326 6 3V3.75H3.75C2.7558 3.75119 1.80267 4.14666 1.09966 4.84966C0.396661 5.55267 0.00119089 6.5058 0 7.5L0 13.5C0.00119089 14.4942 0.396661 15.4473 1.09966 16.1503C1.80267 16.8533 2.7558 17.2488 3.75 17.25H14.25C15.2442 17.2488 16.1973 16.8533 16.9003 16.1503C17.6033 15.4473 17.9988 14.4942 18 13.5V7.5C17.9988 6.5058 17.6033 5.55267 16.9003 4.84966C16.1973 4.14666 15.2442 3.75119 14.25 3.75ZM7.5 3C7.5 2.80109 7.57902 2.61032 7.71967 2.46967C7.86032 2.32902 8.05109 2.25 8.25 2.25H9.75C9.94891 2.25 10.1397 2.32902 10.2803 2.46967C10.421 2.61032 10.5 2.80109 10.5 3V3.75H7.5V3ZM16.5 13.5C16.5 14.0967 16.2629 14.669 15.841 15.091C15.419 15.5129 14.8467 15.75 14.25 15.75H3.75C3.15326 15.75 2.58097 15.5129 2.15901 15.091C1.73705 14.669 1.5 14.0967 1.5 13.5V7.5C1.5 6.90326 1.73705 6.33097 2.15901 5.90901C2.58097 5.48705 3.15326 5.25 3.75 5.25H14.25C14.8467 5.25 15.419 5.48705 15.841 5.90901C16.2629 6.33097 16.5 6.90326 16.5 7.5V13.5ZM12 10.5C12 10.6989 11.921 10.8897 11.7803 11.0303C11.6397 11.171 11.4489 11.25 11.25 11.25H9.75V12.75C9.75 12.9489 9.67098 13.1397 9.53033 13.2803C9.38968 13.421 9.19891 13.5 9 13.5C8.80109 13.5 8.61032 13.421 8.46967 13.2803C8.32902 13.1397 8.25 12.9489 8.25 12.75V11.25H6.75C6.55109 11.25 6.36032 11.171 6.21967 11.0303C6.07902 10.8897 6 10.6989 6 10.5C6 10.3011 6.07902 10.1103 6.21967 9.96967C6.36032 9.82902 6.55109 9.75 6.75 9.75H8.25V8.25C8.25 8.05109 8.32902 7.86032 8.46967 7.71967C8.61032 7.57902 8.80109 7.5 9 7.5C9.19891 7.5 9.38968 7.57902 9.53033 7.71967C9.67098 7.86032 9.75 8.05109 9.75 8.25V9.75H11.25C11.4489 9.75 11.6397 9.82902 11.7803 9.96967C11.921 10.1103 12 10.3011 12 10.5Z" fill="#408DFB"/>
</g>
<defs>
<clipPath id="clip0_125_437">
<rect width="18" height="18" fill="white"/>
</clipPath>
</defs>
</svg>
