<svg width="18" height="18" viewBox="0 0 18 18" fill="none" xmlns="http://www.w3.org/2000/svg">
<g clip-path="url(#clip0_125_457)">
<path d="M18 11.625C18 9.58423 16.7377 7.83448 14.9542 7.10923C14.8942 7.62823 14.769 8.12548 14.5912 8.59948C15.7162 9.14773 16.5 10.2915 16.5 11.625C16.5 12.6382 16.0508 13.5832 15.2812 14.2207L11.4202 10.3597C12.6757 9.47773 13.5 8.02198 13.5 6.37498C13.5 3.68698 11.313 1.49998 8.625 1.49998H4.875C4.215 1.49998 3.55725 1.63573 2.95425 1.89373L1.09275 0.0322266L0.03225 1.09273L16.9072 17.9677L17.9678 16.9072L16.3455 15.285C17.3918 14.3655 18 13.0417 18 11.625ZM4.875 2.99998H8.625C10.4858 2.99998 12 4.51423 12 6.37498C12 7.60198 11.3317 8.68723 10.3448 9.28423L9.2865 8.22598C10.005 8.10298 10.3868 7.50973 10.4782 6.74998H9.375C8.90025 6.74998 8.44275 6.82048 8.00925 6.94873L4.14 3.07948C4.3785 3.02698 4.62375 2.99998 4.875 2.99998ZM3.40875 9.40048C3.23175 9.87373 3.10575 10.3717 3.04575 10.8907C1.26225 10.1655 0 8.41573 0 6.37498C0 5.47198 0.2475 4.61323 0.69075 3.87223L1.80075 4.98223C1.60725 5.41123 1.5 5.88373 1.5 6.37498C1.5 7.70848 2.28375 8.85298 3.40875 9.40048ZM11.8185 15L13.3057 16.4872C13.245 16.4895 13.1858 16.5 13.1257 16.5H9.37575C6.68775 16.5 4.50075 14.313 4.50075 11.625C4.50075 10.518 4.881 9.50473 5.50575 8.68648L6.5775 9.75823C6.21825 10.2967 6.00075 10.9357 6.00075 11.625C6.00075 13.4857 7.515 15 9.37575 15H11.8185Z" fill="#408DFB"/>
</g>
<defs>
<clipPath id="clip0_125_457">
<rect width="18" height="18" fill="white"/>
</clipPath>
</defs>
</svg>
