<svg width="18" height="18" viewBox="0 0 18 18" fill="none" xmlns="http://www.w3.org/2000/svg">
<g clip-path="url(#clip0_125_454)">
<path d="M17.5657 12.4373L15.0974 9.96901C15.0286 9.89575 14.9458 9.83707 14.8539 9.79644C14.762 9.75581 14.6628 9.73407 14.5623 9.73251C14.4619 9.73095 14.3621 9.7496 14.2689 9.78735C14.1758 9.82511 14.0912 9.88119 14.0202 9.95228C13.9491 10.0234 13.8931 10.108 13.8554 10.2012C13.8177 10.2943 13.7992 10.3941 13.8008 10.4946C13.8024 10.5951 13.8242 10.6942 13.8649 10.7861C13.9056 10.878 13.9644 10.9608 14.0377 11.0295L15.7552 12.75C14.8215 12.7521 13.8969 12.5674 13.0357 12.2068C12.1745 11.8461 11.3942 11.3168 10.7407 10.65C10.6681 10.5832 10.5828 10.5316 10.49 10.4984C10.3971 10.4651 10.2985 10.4509 10.2 10.4565C10.1015 10.4621 10.0051 10.4874 9.91658 10.5309C9.82806 10.5745 9.7492 10.6354 9.68466 10.71L9.67491 10.725C9.54882 10.8717 9.48427 11.0614 9.49476 11.2546C9.50524 11.4477 9.58994 11.6293 9.73116 11.7615C10.5185 12.5578 11.4574 13.1882 12.4924 13.6156C13.5275 14.043 14.6376 14.2588 15.7574 14.25L14.0377 15.9698C13.9593 16.0372 13.8957 16.12 13.8509 16.2132C13.8061 16.3063 13.781 16.4077 13.7772 16.511C13.7735 16.6143 13.7911 16.7173 13.829 16.8134C13.8669 16.9096 13.9243 16.9969 13.9975 17.0698C14.0708 17.1428 14.1583 17.1998 14.2546 17.2373C14.351 17.2748 14.454 17.2919 14.5573 17.2877C14.6605 17.2835 14.7618 17.258 14.8548 17.2128C14.9477 17.1676 15.0303 17.1037 15.0974 17.025L17.5657 14.5568C17.8464 14.2755 18.0041 13.8944 18.0041 13.497C18.0041 13.0996 17.8464 12.7185 17.5657 12.4373Z" fill="#408DFB"/>
<path d="M15.7551 5.25L14.0376 6.9675C14.023 6.98724 14.0095 7.00777 13.9971 7.029C13.8761 7.17656 13.8164 7.36499 13.8304 7.55533C13.8444 7.74566 13.931 7.92335 14.0723 8.05164C14.2136 8.17993 14.3988 8.24902 14.5896 8.24462C14.7804 8.24022 14.9622 8.16267 15.0974 8.028L16.3769 6.75L17.5664 5.56125C17.7675 5.35857 17.9066 5.1027 17.9673 4.8237C18.028 4.54471 18.0078 4.25418 17.9091 3.98625C17.8363 3.78116 17.719 3.59471 17.5656 3.44025L15.0974 0.975001C15.0289 0.900608 14.9461 0.840827 14.854 0.799252C14.7618 0.757677 14.6622 0.735165 14.5611 0.733071C14.46 0.730977 14.3595 0.749343 14.2657 0.787065C14.1719 0.824787 14.0867 0.881087 14.0152 0.95258C13.9437 1.02407 13.8874 1.10928 13.8497 1.20309C13.812 1.2969 13.7936 1.39736 13.7957 1.49845C13.7978 1.59953 13.8203 1.69915 13.8619 1.79131C13.9035 1.88347 13.9633 1.96628 14.0376 2.03475L15.7574 3.75375C12.0576 3.76275 10.0296 5.75925 8.19064 7.85925C6.50164 5.95275 4.49989 4.05 1.11514 3.7845L0.754395 3.75C0.555482 3.75 0.364717 3.82902 0.224064 3.96967C0.0834122 4.11032 0.00439453 4.30109 0.00439453 4.5C0.00823464 4.69771 0.0884851 4.88625 0.228314 5.02608C0.368142 5.16591 0.556684 5.24616 0.754395 5.25C0.808395 5.25 0.969644 5.27475 0.969644 5.27475C3.89164 5.496 5.56865 7.1415 7.19989 9C5.5784 10.8495 3.91264 12.525 1.01464 12.72L0.714645 12.7358C0.517224 12.7481 0.332788 12.8383 0.201911 12.9867C0.0710345 13.135 0.00443696 13.3292 0.0167695 13.5266C0.0291021 13.724 0.119355 13.9085 0.267672 14.0394C0.41599 14.1702 0.610224 14.2368 0.807644 14.2245C0.924645 14.2192 1.11514 14.2148 1.20889 14.2073C4.97389 13.917 7.01614 11.5073 8.83714 9.4005C10.6761 7.275 12.4131 5.2635 15.7551 5.25Z" fill="#408DFB"/>
</g>
<defs>
<clipPath id="clip0_125_454">
<rect width="18" height="18" fill="white"/>
</clipPath>
</defs>
</svg>
