<svg width="18" height="18" viewBox="0 0 18 18" fill="none" xmlns="http://www.w3.org/2000/svg">
<g clip-path="url(#clip0_85_155)">
<path d="M16.5 12.75V3.75H14.25V5.25H15V12.75H11.3145L10.5645 13.5H7.4355L6.6855 12.75H3V5.25H3.75V3.75H1.5V12.75H0V15C0 16.2405 1.0095 17.25 2.25 17.25H15.75C16.9905 17.25 18 16.2405 18 15V12.75H16.5ZM16.5 15C16.5 15.414 16.1632 15.75 15.75 15.75H2.25C1.83675 15.75 1.5 15.414 1.5 15V14.25H6.0645L6.8145 15H11.1855L11.9355 14.25H16.5V15ZM5.478 7.3995L6.5355 6.789C6.9885 7.2765 7.5795 7.6305 8.25 7.78425V9H9.75V7.78425C10.4213 7.63125 11.0115 7.2765 11.4645 6.789L12.522 7.3995L13.272 6.1005L12.21 5.48775C12.3068 5.1735 12.3743 4.8465 12.3743 4.5C12.3743 4.1535 12.3068 3.82725 12.21 3.51225L13.272 2.8995L12.522 1.6005L11.4645 2.211C11.0115 1.7235 10.4205 1.3695 9.75 1.21575V0H8.25V1.21575C7.57875 1.36875 6.9885 1.7235 6.5355 2.211L5.478 1.6005L4.728 2.8995L5.79 3.51225C5.69325 3.8265 5.62575 4.1535 5.62575 4.5C5.62575 4.8465 5.69325 5.17275 5.79 5.48775L4.728 6.1005L5.478 7.3995ZM9 2.625C10.0335 2.625 10.875 3.46575 10.875 4.5C10.875 5.53425 10.0335 6.375 9 6.375C7.9665 6.375 7.125 5.53425 7.125 4.5C7.125 3.46575 7.9665 2.625 9 2.625Z" fill="#408dfb"/>
</g>
<defs>
<clipPath id="clip0_85_155">
<rect width="18" height="18" fill="white"/>
</clipPath>
</defs>
</svg>
