<svg width="18" height="18" viewBox="0 0 18 18" fill="none" xmlns="http://www.w3.org/2000/svg">
<g clip-path="url(#clip0_105_586)">
<path d="M10.4903 4.581C10.461 4.58925 5.06925 6.729 5.06925 6.729C4.66837 6.88535 4.32617 7.16275 4.09025 7.52261C3.85433 7.88247 3.73642 8.30691 3.75292 8.73689C3.76942 9.16687 3.91951 9.58103 4.18231 9.92175C4.44511 10.2625 4.80756 10.5128 5.21925 10.638L6.97875 11.0783L7.5585 12.9713C7.71275 13.3496 7.97632 13.6734 8.31553 13.9012C8.65474 14.1289 9.05416 14.2504 9.46275 14.25H9.49575C9.91054 14.2447 10.314 14.1138 10.653 13.8747C10.9919 13.6356 11.2506 13.2995 11.3948 12.9105C11.3948 12.9105 13.4145 7.53675 13.4198 7.5105C13.5261 7.10502 13.5244 6.67876 13.4148 6.27414C13.3052 5.86952 13.0916 5.50066 12.7951 5.20428C12.4987 4.9079 12.1298 4.69434 11.7251 4.58486C11.3205 4.47537 10.8942 4.47379 10.4888 4.58025L10.4903 4.581ZM11.9775 7.10025L9.9915 12.3825C9.95327 12.4897 9.88292 12.5825 9.79005 12.6482C9.69718 12.714 9.5863 12.7495 9.4725 12.75C9.3975 12.741 9.07875 12.7305 8.96625 12.4665L8.28525 10.2345C8.24762 10.1107 8.1786 9.99874 8.0849 9.9095C7.99119 9.82027 7.876 9.75679 7.7505 9.72525L5.637 9.20025C5.52577 9.1624 5.4289 9.09118 5.3596 8.99629C5.29029 8.90141 5.25192 8.78746 5.24971 8.66998C5.24749 8.5525 5.28155 8.43719 5.34723 8.33976C5.41291 8.24233 5.50702 8.16752 5.61675 8.1255L10.9118 6.0255C11.0576 5.99067 11.21 5.99449 11.3539 6.03658C11.4978 6.07867 11.6282 6.15758 11.7323 6.2655C11.841 6.37216 11.9206 6.50486 11.9635 6.65097C12.0064 6.79708 12.0112 6.95175 11.9775 7.10025ZM9 0C7.21997 0 5.47991 0.527841 3.99987 1.51677C2.51983 2.50571 1.36628 3.91131 0.685088 5.55585C0.00389957 7.20038 -0.17433 9.00998 0.172937 10.7558C0.520204 12.5016 1.37737 14.1053 2.63604 15.364C3.89472 16.6226 5.49836 17.4798 7.24419 17.8271C8.99002 18.1743 10.7996 17.9961 12.4442 17.3149C14.0887 16.6337 15.4943 15.4802 16.4832 14.0001C17.4722 12.5201 18 10.78 18 9C17.9974 6.61384 17.0484 4.32616 15.3611 2.63889C13.6738 0.951621 11.3862 0.00258081 9 0ZM9 16.5C7.51664 16.5 6.0666 16.0601 4.83323 15.236C3.59986 14.4119 2.63856 13.2406 2.07091 11.8701C1.50325 10.4997 1.35473 8.99168 1.64411 7.53682C1.9335 6.08197 2.64781 4.74559 3.6967 3.6967C4.7456 2.64781 6.08197 1.9335 7.53683 1.64411C8.99168 1.35472 10.4997 1.50325 11.8701 2.0709C13.2406 2.63856 14.4119 3.59985 15.236 4.83322C16.0601 6.06659 16.5 7.51664 16.5 9C16.4978 10.9885 15.7069 12.8948 14.3009 14.3009C12.8948 15.7069 10.9885 16.4978 9 16.5Z" fill="#408DFB"/>
</g>
<defs>
<clipPath id="clip0_105_586">
<rect width="18" height="18" fill="white"/>
</clipPath>
</defs>
</svg>
