<svg width="18" height="18" viewBox="0 0 18 18" fill="none" xmlns="http://www.w3.org/2000/svg">
<g clip-path="url(#clip0_105_573)">
<path d="M14.871 2.5605L13.1895 0.879C12.6259 0.318017 11.8637 0.00213315 11.0685 0L4.5 0C3.90326 0 3.33097 0.237053 2.90901 0.65901C2.48705 1.08097 2.25 1.65326 2.25 2.25V18H15.75V4.6815C15.7479 3.88631 15.432 3.12409 14.871 2.5605ZM13.8105 3.621C13.848 3.66211 13.8833 3.70517 13.9163 3.75H12V1.83375C12.0448 1.86671 12.0879 1.90201 12.129 1.9395L13.8105 3.621ZM3.75 16.5V2.25C3.75 2.05109 3.82902 1.86032 3.96967 1.71967C4.11032 1.57902 4.30109 1.5 4.5 1.5H10.5V5.25H14.25V16.5H3.75ZM10.5 12.75H12.75V14.25H10.5V12.75ZM11.25 11.25V9.96975C11.2509 9.22402 11.0921 8.48674 10.7843 7.8075L10.3927 6.94275C10.2827 6.66638 10.0931 6.42895 9.84779 6.26065C9.60252 6.09235 9.31275 6.00077 9.01531 5.99756C8.71786 5.99434 8.42618 6.07963 8.17733 6.24259C7.92848 6.40555 7.7337 6.63882 7.61775 6.91275L7.2135 7.80825C6.90637 8.48737 6.74832 9.22441 6.75 9.96975V11.25H8.25V10.5H9.75V11.25H11.25ZM9.0135 7.53075L9.41775 8.42475C9.49631 8.61103 9.55952 8.80342 9.60675 9H8.39325C8.44036 8.80363 8.50357 8.61148 8.58225 8.4255L9.0135 7.53075ZM8.655 12.0308L9.72 13.0868L8.3205 14.4998C8.00345 14.816 7.57393 14.9936 7.12613 14.9936C6.67832 14.9936 6.2488 14.816 5.93175 14.4998L5.277 13.8315L6.348 12.7815L6.9975 13.4445C7.03303 13.4777 7.0801 13.4957 7.12869 13.4947C7.17729 13.4937 7.22358 13.4738 7.25775 13.4393L8.655 12.0308Z" fill="#408DFB"/>
</g>
<defs>
<clipPath id="clip0_105_573">
<rect width="18" height="18" fill="white"/>
</clipPath>
</defs>
</svg>
