<svg width="18" height="18" viewBox="0 0 18 18" fill="none" xmlns="http://www.w3.org/2000/svg">
<g clip-path="url(#clip0_110_202)">
<path d="M8.25 10.2922C8.0221 10.1621 7.83265 9.97408 7.70089 9.74713C7.56912 9.52018 7.49972 9.26243 7.49972 9C7.49972 8.73757 7.56912 8.47982 7.70089 8.25287C7.83265 8.02592 8.0221 7.83786 8.25 7.70775V5.25C8.25 5.05109 8.32902 4.86032 8.46967 4.71967C8.61032 4.57902 8.80109 4.5 9 4.5C9.19891 4.5 9.38968 4.57902 9.53033 4.71967C9.67098 4.86032 9.75 5.05109 9.75 5.25V7.70775C9.9779 7.83786 10.1673 8.02592 10.2991 8.25287C10.4309 8.47982 10.5003 8.73757 10.5003 9C10.5003 9.26243 10.4309 9.52018 10.2991 9.74713C10.1673 9.97408 9.9779 10.1621 9.75 10.2922V12C9.75 12.1989 9.67098 12.3897 9.53033 12.5303C9.38968 12.671 9.19891 12.75 9 12.75C8.80109 12.75 8.61032 12.671 8.46967 12.5303C8.32902 12.3897 8.25 12.1989 8.25 12V10.2922ZM9 0C8.80109 0 8.61032 0.0790176 8.46967 0.21967C8.32902 0.360322 8.25 0.551088 8.25 0.75C8.25 0.948912 8.32902 1.13968 8.46967 1.28033C8.61032 1.42098 8.80109 1.5 9 1.5C10.9891 1.5 12.8968 2.29018 14.3033 3.6967C15.7098 5.10322 16.5 7.01088 16.5 9C16.5 10.9891 15.7098 12.8968 14.3033 14.3033C12.8968 15.7098 10.9891 16.5 9 16.5C8.80109 16.5 8.61032 16.579 8.46967 16.7197C8.32902 16.8603 8.25 17.0511 8.25 17.25C8.25 17.4489 8.32902 17.6397 8.46967 17.7803C8.61032 17.921 8.80109 18 9 18C11.3869 18 13.6761 17.0518 15.364 15.364C17.0518 13.6761 18 11.3869 18 9C18 6.61305 17.0518 4.32387 15.364 2.63604C13.6761 0.948211 11.3869 0 9 0ZM1.37025 5.088C1.22191 5.088 1.07691 5.13199 0.953573 5.2144C0.830236 5.29681 0.734106 5.41394 0.677341 5.55099C0.620575 5.68803 0.605722 5.83883 0.634661 5.98432C0.6636 6.1298 0.735031 6.26344 0.83992 6.36833C0.94481 6.47322 1.07845 6.54465 1.22393 6.57359C1.36942 6.60253 1.52022 6.58768 1.65726 6.53091C1.79431 6.47414 1.91144 6.37801 1.99385 6.25468C2.07626 6.13134 2.12025 5.98634 2.12025 5.838C2.12025 5.63909 2.04123 5.44832 1.90058 5.30767C1.75993 5.16702 1.56916 5.088 1.37025 5.088ZM1.5 9C1.5 8.85166 1.45601 8.70666 1.3736 8.58332C1.29119 8.45998 1.17406 8.36386 1.03701 8.30709C0.899968 8.25032 0.749168 8.23547 0.603683 8.26441C0.458197 8.29335 0.32456 8.36478 0.21967 8.46967C0.114781 8.57456 0.0433503 8.7082 0.0144114 8.85368C-0.0145275 8.99917 0.000324961 9.14997 0.0570907 9.28701C0.113856 9.42406 0.209986 9.54119 0.333323 9.6236C0.45666 9.70601 0.601664 9.75 0.75 9.75C0.948913 9.75 1.13968 9.67098 1.28033 9.53033C1.42098 9.38968 1.5 9.19891 1.5 9ZM3.16575 2.40525C3.01741 2.40525 2.87241 2.44924 2.74907 2.53165C2.62574 2.61406 2.52961 2.73119 2.47284 2.86824C2.41607 3.00528 2.40122 3.15608 2.43016 3.30157C2.4591 3.44705 2.53053 3.58069 2.63542 3.68558C2.74031 3.79047 2.87395 3.8619 3.01943 3.89084C3.16492 3.91978 3.31572 3.90493 3.45276 3.84816C3.58981 3.79139 3.70694 3.69526 3.78935 3.57193C3.87176 3.44859 3.91575 3.30359 3.91575 3.15525C3.91575 2.95634 3.83673 2.76557 3.69608 2.62492C3.55543 2.48427 3.36466 2.40525 3.16575 2.40525ZM5.83425 0.63075C5.68591 0.63075 5.54091 0.674737 5.41757 0.757148C5.29424 0.839559 5.19811 0.956693 5.14134 1.09374C5.08458 1.23078 5.06972 1.38158 5.09866 1.52707C5.1276 1.67255 5.19903 1.80619 5.30392 1.91108C5.40881 2.01597 5.54245 2.0874 5.68793 2.11634C5.83342 2.14528 5.98422 2.13043 6.12126 2.07366C6.25831 2.01689 6.37544 1.92076 6.45785 1.79743C6.54026 1.67409 6.58425 1.52909 6.58425 1.38075C6.58425 1.18184 6.50523 0.991072 6.36458 0.85042C6.22393 0.709768 6.03316 0.63075 5.83425 0.63075ZM1.37025 11.412C1.22191 11.412 1.07691 11.456 0.953573 11.5384C0.830236 11.6208 0.734106 11.7379 0.677341 11.875C0.620575 12.012 0.605722 12.1628 0.634661 12.3083C0.6636 12.4538 0.735031 12.5874 0.83992 12.6923C0.94481 12.7972 1.07845 12.8686 1.22393 12.8976C1.36942 12.9265 1.52022 12.9117 1.65726 12.8549C1.79431 12.7981 1.91144 12.702 1.99385 12.5787C2.07626 12.4553 2.12025 12.3103 2.12025 12.162C2.12025 11.9631 2.04123 11.7723 1.90058 11.6317C1.75993 11.491 1.56916 11.412 1.37025 11.412ZM3.16575 14.0947C3.01741 14.0947 2.87241 14.1387 2.74907 14.2211C2.62574 14.3036 2.52961 14.4207 2.47284 14.5577C2.41607 14.6948 2.40122 14.8456 2.43016 14.9911C2.4591 15.1366 2.53053 15.2702 2.63542 15.3751C2.74031 15.48 2.87395 15.5514 3.01943 15.5803C3.16492 15.6093 3.31572 15.5944 3.45276 15.5377C3.58981 15.4809 3.70694 15.3848 3.78935 15.2614C3.87176 15.1381 3.91575 14.9931 3.91575 14.8447C3.91575 14.6458 3.83673 14.4551 3.69608 14.3144C3.55543 14.1738 3.36466 14.0947 3.16575 14.0947ZM5.83425 15.8693C5.68591 15.8693 5.54091 15.9132 5.41757 15.9956C5.29424 16.0781 5.19811 16.1952 5.14134 16.3322C5.08458 16.4693 5.06972 16.6201 5.09866 16.7656C5.1276 16.9111 5.19903 17.0447 5.30392 17.1496C5.40881 17.2545 5.54245 17.3259 5.68793 17.3548C5.83342 17.3838 5.98422 17.3689 6.12126 17.3122C6.25831 17.2554 6.37544 17.1593 6.45785 17.0359C6.54026 16.9126 6.58425 16.7676 6.58425 16.6193C6.58425 16.4203 6.50523 16.2296 6.36458 16.0889C6.22393 15.9483 6.03316 15.8693 5.83425 15.8693Z" fill="#408DFB"/>
</g>
<defs>
<clipPath id="clip0_110_202">
<rect width="18" height="18" fill="white"/>
</clipPath>
</defs>
</svg>
