<svg width="18" height="18" viewBox="0 0 18 18" fill="none" xmlns="http://www.w3.org/2000/svg">
<g clip-path="url(#clip0_107_809)">
<path d="M2.99996 13.5H7.49996V9H2.99996V13.5ZM4.49996 10.5H5.99996V12H4.49996V10.5ZM15.7515 1.5H13.5015V0H12.0015V1.5H6.00146V0H4.50146V1.5H2.25146C1.01096 1.5 0.00146484 2.5095 0.00146484 3.75V18H18.0015V3.75C18.0015 2.5095 16.992 1.5 15.7515 1.5ZM2.25146 3H15.7515C16.1655 3 16.5015 3.33675 16.5015 3.75V6H1.50146V3.75C1.50146 3.33675 1.83746 3 2.25146 3ZM1.50146 16.5V7.5H16.5015V16.5H1.50146Z" fill="#408DFB"/>
</g>
<defs>
<clipPath id="clip0_107_809">
<rect width="18" height="18" fill="white"/>
</clipPath>
</defs>
</svg>
