<svg width="18" height="18" viewBox="0 0 18 18" fill="none" xmlns="http://www.w3.org/2000/svg">
<g clip-path="url(#clip0_110_190)">
<path d="M11.2905 1.875C11.2905 0.839252 12.1298 2.29687e-06 13.1655 2.29687e-06C14.2013 2.29687e-06 15.0405 0.839252 15.0405 1.875C15.0405 2.91075 14.2013 3.75 13.1655 3.75C12.1298 3.75 11.2905 2.91075 11.2905 1.875ZM6 11.25H3C2.17275 11.25 1.5 10.5773 1.5 9.75V5.7465C1.5 5.04975 1.81425 4.404 2.36325 3.975L4.85625 2.02425C5.65275 1.401 6.7335 1.3245 7.572 1.809L8.6355 2.5035C8.98275 2.72925 9.447 2.6325 9.6735 2.28525C9.9 1.93875 9.8025 1.47375 9.45525 1.24725L8.35725 0.531002C6.94875 -0.281998 5.21175 -0.159748 3.9315 0.842252L1.4385 2.793C0.52425 3.50925 0 4.5855 0 5.7465V9.75C0 11.4045 1.3455 12.75 3 12.75H6C6.414 12.75 6.75 12.414 6.75 12C6.75 11.586 6.414 11.25 6 11.25ZM3.75 6.75C3.336 6.75 3 7.086 3 7.5V8.25C3 8.664 3.336 9 3.75 9H4.5C4.914 9 5.25 8.664 5.25 8.25V7.5C5.25 7.086 4.914 6.75 4.5 6.75H3.75ZM17.8785 10.5345C17.652 10.8818 17.1893 10.9808 16.8405 10.7535L15.0413 9.5805V12.4808L15.5317 12.8048C16.164 13.2233 16.5413 13.9245 16.5413 14.6813V17.25C16.5413 17.664 16.2052 18 15.7913 18C15.3773 18 15.0413 17.664 15.0413 17.25V14.6813C15.0413 14.4293 14.9153 14.1953 14.7045 14.0558L11.517 11.9483C10.899 11.5163 10.5405 10.827 10.5405 10.0935V7.245L9.3675 8.04675C9.1635 8.187 9.0405 8.418 9.0405 8.66625V10.4993C9.0405 10.9133 8.7045 11.2493 8.2905 11.2493C7.8765 11.2493 7.5405 10.9133 7.5405 10.4993V8.66625C7.5405 7.92225 7.90725 7.22775 8.5215 6.8085L10.9522 5.14725C11.178 4.9425 11.781 4.512 12.8625 4.512C13.7828 4.512 14.7105 5.16825 14.9948 6.01275C15.0037 6.03825 15.519 7.87875 15.519 7.87875C15.5677 8.0535 15.6795 8.20575 15.8317 8.30475L17.6603 9.4965C18.0068 9.723 18.105 10.1873 17.8792 10.5345H17.8785ZM13.5405 6.411C13.431 6.2115 13.113 6.012 12.8625 6.012C12.4132 6.012 12.1568 6.12675 12.0405 6.198V10.0928C12.0405 10.3373 12.1605 10.5668 12.3608 10.7078L13.5405 11.4878V6.411ZM11.6805 13.5563C11.298 13.4003 10.8593 13.5825 10.7017 13.9658L9.471 16.9658C9.31425 17.349 9.49725 17.787 9.8805 17.9445C9.9735 17.9828 10.0695 18.0008 10.1648 18.0008C10.4602 18.0008 10.74 17.8253 10.8593 17.535L12.09 14.535C12.2468 14.1518 12.0638 13.7138 11.6805 13.5563Z" fill="#408DFB"/>
</g>
<defs>
<clipPath id="clip0_110_190">
<rect width="18" height="18" fill="white"/>
</clipPath>
</defs>
</svg>
