<svg width="18" height="18" viewBox="0 0 18 18" fill="none" xmlns="http://www.w3.org/2000/svg">
<g clip-path="url(#clip0_110_194)">
<path d="M9 12C7.3455 12 6 10.6545 6 9C6 7.3455 7.3455 6 9 6C10.6545 6 12 7.3455 12 9C12 10.6545 10.6545 12 9 12ZM9 7.5C8.17275 7.5 7.5 8.17275 7.5 9C7.5 9.82725 8.17275 10.5 9 10.5C9.82725 10.5 10.5 9.82725 10.5 9C10.5 8.17275 9.82725 7.5 9 7.5ZM3.75 5.25C3.336 5.25 3 5.586 3 6C3 6.414 3.336 6.75 3.75 6.75C4.164 6.75 4.5 6.414 4.5 6C4.5 5.586 4.164 5.25 3.75 5.25ZM13.5 7.5C13.5 7.914 13.836 8.25 14.25 8.25C14.664 8.25 15 7.914 15 7.5C15 7.086 14.664 6.75 14.25 6.75C13.836 6.75 13.5 7.086 13.5 7.5ZM3.75 9.75C3.336 9.75 3 10.086 3 10.5C3 10.914 3.336 11.25 3.75 11.25C4.164 11.25 4.5 10.914 4.5 10.5C4.5 10.086 4.164 9.75 3.75 9.75ZM13.5 12C13.5 12.414 13.836 12.75 14.25 12.75C14.664 12.75 15 12.414 15 12C15 11.586 14.664 11.25 14.25 11.25C13.836 11.25 13.5 11.586 13.5 12ZM12.7508 15.75C11.5208 15.75 10.1348 15.354 8.7945 14.9708C7.554 14.616 6.27075 14.25 5.25075 14.25C3.2025 14.25 1.089 15.2273 1.06725 15.2363L0 15.7358V5.3685C0 4.5225 0.4635 3.7575 1.21125 3.37125C2.205 2.859 3.711 2.24925 5.25075 2.24925C6.49725 2.24925 7.70025 2.6505 8.86275 3.0375C9.96 3.4035 10.9965 3.74925 12 3.74925C13.0395 3.74925 13.8878 3.47775 14.5695 3.2595C14.796 3.18675 15.0023 3.12075 15.1905 3.07125C15.864 2.892 16.5668 3.03525 17.1203 3.46125C17.6798 3.89175 18.0008 4.5435 18.0008 5.24925V14.463L17.5605 14.6625C17.4623 14.7075 15.1358 15.75 12.7508 15.75ZM5.25075 12.75C6.48075 12.75 7.86675 13.146 9.207 13.5293C10.4483 13.884 11.7308 14.25 12.7508 14.25C14.2508 14.25 15.7733 13.7513 16.5008 13.476V5.25C16.5008 5.013 16.3928 4.79475 16.2053 4.65075C16.0988 4.569 15.8738 4.44375 15.5738 4.5225C15.408 4.56675 15.2258 4.62525 15.0263 4.689C14.2868 4.92525 13.2728 5.25 12 5.25C10.7535 5.25 9.5505 4.84875 8.388 4.46175C7.29075 4.09575 6.25425 3.75 5.25075 3.75C3.9465 3.75 2.5905 4.3485 1.89825 4.70475C1.65225 4.8315 1.49925 5.08575 1.49925 5.3685V13.455C2.42175 13.1348 3.8265 12.75 5.25075 12.75Z" fill="#408DFB"/>
</g>
<defs>
<clipPath id="clip0_110_194">
<rect width="18" height="18" fill="white"/>
</clipPath>
</defs>
</svg>
