<svg width="18" height="18" viewBox="0 0 18 18" fill="none" xmlns="http://www.w3.org/2000/svg">
<g clip-path="url(#clip0_110_196)">
<path d="M10.5 5.535C10.5 5.3025 10.335 5.1075 10.11 5.07L7.65 4.6575C6.6975 4.5 6.0075 3.6825 6.0075 2.715C6.0075 1.6275 6.8925 0.75 7.9725 0.75H8.2575V0H9.7575V0.75C10.995 0.75 12.0075 1.7625 12.0075 3H10.5075C10.5075 2.5875 10.17 2.25 9.7575 2.25H7.9725C7.7175 2.25 7.5075 2.46 7.5075 2.715C7.5075 2.9475 7.6725 3.1425 7.8975 3.18L10.3575 3.5925C11.31 3.75 12 4.5675 12 5.535C12 6.6225 11.115 7.5 10.035 7.5H9.75V8.25H8.25V7.5C7.0125 7.5 6 6.4875 6 5.25H7.5C7.5 5.6625 7.8375 6 8.25 6H10.035C10.29 6 10.5 5.79 10.5 5.535ZM15.75 2.25C14.5125 2.25 13.5 3.2625 13.5 4.5V8.385C13.2975 8.3175 13.095 8.265 12.8775 8.25C12.285 8.22 11.7 8.4225 11.25 8.8275L9 10.8975L6.75 8.8275C6.3 8.4225 5.715 8.22 5.13 8.2575C4.9125 8.2725 4.7025 8.325 4.5075 8.3925V4.5C4.5075 3.2625 3.495 2.25 2.2575 2.25C1.02 2.25 0 3.2625 0 4.5V13.6725C0 14.2275 0.2025 14.7675 0.5775 15.18L3.12 18H5.1375L1.6875 14.175C1.56 14.04 1.4925 13.86 1.4925 13.6725V4.5C1.4925 4.0875 1.83 3.75 2.2425 3.75C2.655 3.75 2.9925 4.0875 2.9925 4.5V10.5H3C3 11.0175 3.18 11.5425 3.5475 11.9775L5.5125 14.0175L6.5925 12.975L4.665 10.9725C4.425 10.6875 4.4325 10.2675 4.68 9.99C4.815 9.84 4.995 9.75 5.1975 9.7425C5.4 9.735 5.5875 9.8025 5.73 9.93L8.7525 12.705C8.91 12.8475 8.9925 13.05 8.9925 13.26V17.9925H10.4925V13.26C10.4925 12.7875 10.3425 12.3225 10.065 11.9475L12.2475 9.9375C12.3975 9.8025 12.5925 9.735 12.7875 9.75C12.99 9.7575 13.17 9.8475 13.305 9.9975C13.425 10.1325 13.485 10.2975 13.4925 10.4625V10.5C13.4925 10.665 13.4475 10.8225 13.35 10.9425L11.4525 12.915L12.5325 13.9575L14.4675 11.9475C14.8125 11.535 14.985 11.0175 14.985 10.5075V4.5C14.985 4.0875 15.3225 3.75 15.735 3.75C16.1475 3.75 16.485 4.0875 16.485 4.5V13.6725C16.485 13.86 16.4175 14.04 16.29 14.175L12.84 18H14.8575L17.4 15.18C17.775 14.7675 17.9775 14.2275 17.9775 13.6725V4.5C17.9775 3.2625 16.965 2.25 15.7275 2.25H15.75Z" fill="#408DFB"/>
</g>
<defs>
<clipPath id="clip0_110_196">
<rect width="18" height="18" fill="white"/>
</clipPath>
</defs>
</svg>
