<svg width="18" height="18" viewBox="0 0 18 18" fill="none" xmlns="http://www.w3.org/2000/svg">
<g clip-path="url(#clip0_105_556)">
<path d="M8.25 9H12.75V10.5H8.25V9ZM15.75 1.5V15.75C15.75 16.9905 14.7405 18 13.5 18H4.5C3.2595 18 2.25 16.9905 2.25 15.75V1.5H6.12825C6.438 0.627 7.272 0 8.25 0H9.75C10.728 0 11.562 0.627 11.8717 1.5H15.75ZM14.25 3H10.5V2.25C10.5 1.836 10.1632 1.5 9.75 1.5H8.25C7.83675 1.5 7.5 1.836 7.5 2.25V3H3.75V15.75C3.75 16.164 4.08675 16.5 4.5 16.5H13.5C13.9132 16.5 14.25 16.164 14.25 15.75V3ZM8.25 7.5H12.75V6H8.25V7.5ZM8.25 13.5H12.75V12H8.25V13.5ZM5.25 7.5H6.75V6H5.25V7.5ZM5.25 10.5H6.75V9H5.25V10.5ZM5.25 13.5H6.75V12H5.25V13.5Z" fill="#408DFB"/>
</g>
<defs>
<clipPath id="clip0_105_556">
<rect width="18" height="18" fill="white"/>
</clipPath>
</defs>
</svg>
