<svg width="18" height="18" viewBox="0 0 18 18" fill="none" xmlns="http://www.w3.org/2000/svg">
<g clip-path="url(#clip0_125_116)">
<path d="M17.2508 16.4997C16.9395 16.4997 16.5608 16.3444 16.1595 16.1802C15.666 15.9784 15.1065 15.7497 14.5005 15.7497C13.8945 15.7497 13.335 15.9784 12.8415 16.1802C12.4403 16.3444 12.0608 16.4997 11.7503 16.4997C11.4398 16.4997 11.0603 16.3444 10.659 16.1802C10.1655 15.9784 9.606 15.7497 9 15.7497C8.394 15.7497 7.8345 15.9784 7.341 16.1802C7.05 16.2994 6.771 16.4134 6.52125 16.4674L9.33525 10.1142L14.7248 12.5712C15.018 12.7054 15.33 12.7722 15.642 12.7722C15.99 12.7722 16.3372 12.6889 16.6583 12.5239C17.2695 12.2097 17.6963 11.6397 17.8283 10.9617C18.6593 6.69044 16.6283 2.51594 12.888 0.810437C9.0375 -0.945313 4.4355 0.266687 1.94475 3.69419C1.533 4.26119 1.39875 4.97669 1.578 5.65769C1.75275 6.32219 2.20575 6.86369 2.8215 7.14419L7.97025 9.49169L5.031 16.1284C4.56975 15.9417 4.0545 15.7497 3.50025 15.7497C2.89425 15.7497 2.33475 15.9784 1.84125 16.1802C1.44 16.3444 1.06125 16.4997 0.75 16.4997C0.336 16.4997 0 16.8357 0 17.2497C0 17.6637 0.336 17.9997 0.75 17.9997C1.356 17.9997 1.9155 17.7709 2.409 17.5692C2.81025 17.4049 3.189 17.2497 3.50025 17.2497C3.8115 17.2497 4.19025 17.4049 4.5915 17.5692C5.085 17.7709 5.6445 17.9997 6.2505 17.9997C6.8565 17.9997 7.416 17.7709 7.9095 17.5692C8.31075 17.4049 8.6895 17.2497 9.00075 17.2497C9.312 17.2497 9.69075 17.4049 10.092 17.5692C10.5855 17.7709 11.145 17.9997 11.751 17.9997C12.357 17.9997 12.9165 17.7709 13.41 17.5692C13.8113 17.4049 14.1908 17.2497 14.5013 17.2497C14.8118 17.2497 15.1913 17.4049 15.5925 17.5692C16.086 17.7709 16.6455 17.9997 17.2515 17.9997C17.6655 17.9997 18.0015 17.6637 18.0015 17.2497C18.0015 16.8357 17.6648 16.4997 17.2508 16.4997ZM3.0285 5.27519C2.96475 5.03219 3.012 4.77719 3.15825 4.57544C5.1975 1.76969 9.11325 0.736937 12.2663 2.17469C15.3728 3.59144 17.055 7.08644 16.3568 10.6744C16.2968 10.9812 16.0905 11.1282 15.9728 11.1889C15.7748 11.2909 15.5483 11.2977 15.348 11.2054L3.444 5.77994C3.16425 5.65244 3.06375 5.40869 3.0285 5.27519Z" fill="#408DFB"/>
</g>
<defs>
<clipPath id="clip0_125_116">
<rect width="18" height="18" fill="white"/>
</clipPath>
</defs>
</svg>
