<svg width="18" height="18" viewBox="0 0 18 18" fill="none" xmlns="http://www.w3.org/2000/svg">
<path d="M15.75 1.5H6C4.7595 1.5 3.75 2.5095 3.75 3.75V13.5H18V3.75C18 2.5095 16.9905 1.5 15.75 1.5ZM12.75 12H9V11.25C9 10.836 9.33675 10.5 9.75 10.5H12C12.4132 10.5 12.75 10.836 12.75 11.25V12ZM16.5 12H14.25V11.25C14.25 10.0095 13.2405 9 12 9H9.75C8.5095 9 7.5 10.0095 7.5 11.25V12H5.25V3.75C5.25 3.336 5.58675 3 6 3H15.75C16.1632 3 16.5 3.336 16.5 3.75V12ZM1.5 15H14.25V16.5H0V6.75C0 5.5095 1.0095 4.5 2.25 4.5V6C1.83675 6 1.5 6.336 1.5 6.75V15ZM12.75 6.375C12.75 7.40925 11.9093 8.25 10.875 8.25C9.84075 8.25 9 7.40925 9 6.375C9 5.34075 9.84075 4.5 10.875 4.5C11.9093 4.5 12.75 5.34075 12.75 6.375Z" fill="#408DFB"/>
</svg>
