<svg width="18" height="18" viewBox="0 0 18 18" fill="none" xmlns="http://www.w3.org/2000/svg">
<g clip-path="url(#clip0_105_584)">
<path d="M14.25 4.4999H7.5345L16.0035 1.45565C16.3942 1.3154 16.596 0.886398 16.4565 0.496398C16.3155 0.106398 15.885 -0.098352 15.4972 0.044148L2.58525 4.68515C1.086 5.1764 0 6.58865 0 8.2499V14.2499C0 16.3176 1.68225 17.9999 3.75 17.9999H14.25C16.3177 17.9999 18 16.3176 18 14.2499V8.2499C18 6.18215 16.3177 4.4999 14.25 4.4999ZM3.75 5.9999H14.25C15.228 5.9999 16.0612 6.6269 16.371 7.4999H1.629C1.848 6.88265 2.25 5.9999 3.75 5.9999ZM14.25 16.4999H3.75C2.5095 16.4999 1.5 15.4904 1.5 14.2499V8.9999H16.5V14.2499C16.5 15.4904 15.4905 16.4999 14.25 16.4999ZM8.25 11.2499C8.25 11.6639 7.91475 11.9999 7.5 11.9999H3.75C3.33525 11.9999 3 11.6639 3 11.2499C3 10.8359 3.33525 10.4999 3.75 10.4999H7.5C7.91475 10.4999 8.25 10.8359 8.25 11.2499ZM8.25 14.2499C8.25 14.6639 7.91475 14.9999 7.5 14.9999H3.75C3.33525 14.9999 3 14.6639 3 14.2499C3 13.8359 3.33525 13.4999 3.75 13.4999H7.5C7.91475 13.4999 8.25 13.8359 8.25 14.2499ZM12.375 10.1249C10.9275 10.1249 9.75 11.3024 9.75 12.7499C9.75 14.1974 10.9275 15.3749 12.375 15.3749C13.8225 15.3749 15 14.1974 15 12.7499C15 11.3024 13.8225 10.1249 12.375 10.1249ZM12.375 13.8749C11.7548 13.8749 11.25 13.3701 11.25 12.7499C11.25 12.1296 11.7548 11.6249 12.375 11.6249C12.9952 11.6249 13.5 12.1296 13.5 12.7499C13.5 13.3701 12.9952 13.8749 12.375 13.8749Z" fill="#408DFB"/>
</g>
<defs>
<clipPath id="clip0_105_584">
<rect width="18" height="18" fill="white"/>
</clipPath>
</defs>
</svg>
