<svg width="18" height="18" viewBox="0 0 18 18" fill="none" xmlns="http://www.w3.org/2000/svg">
<path d="M18 15V15.75C18 16.1648 17.6647 16.5 17.25 16.5C16.8353 16.5 16.5 16.1648 16.5 15.75V15C16.5 14.586 16.164 14.25 15.75 14.25H9.75V15.75C9.75 16.1648 9.414 16.5 9 16.5C8.586 16.5 8.25 16.1648 8.25 15.75V14.25H2.25C1.83675 14.25 1.5 14.586 1.5 15V15.75C1.5 16.1648 1.164 16.5 0.75 16.5C0.336 16.5 0 16.1648 0 15.75V15C0 13.7595 1.0095 12.75 2.25 12.75H15.75C16.9905 12.75 18 13.7595 18 15ZM0 9V4.5C0 3.2595 1.0095 2.25 2.25 2.25H6.75C7.9905 2.25 9 3.2595 9 4.5V9C9 10.2405 7.9905 11.25 6.75 11.25H2.25C1.0095 11.25 0 10.2405 0 9ZM1.5 9C1.5 9.414 1.83675 9.75 2.25 9.75H6.75C7.16325 9.75 7.5 9.414 7.5 9V4.5C7.5 4.086 7.16325 3.75 6.75 3.75H2.25C1.83675 3.75 1.5 4.086 1.5 4.5V9ZM18 6V9C18 10.2405 16.9905 11.25 15.75 11.25H12.75C11.5095 11.25 10.5 10.2405 10.5 9V6C10.5 4.7595 11.5095 3.75 12.75 3.75H15.75C16.9905 3.75 18 4.7595 18 6ZM16.5 6C16.5 5.586 16.164 5.25 15.75 5.25H12.75C12.336 5.25 12 5.586 12 6V9C12 9.414 12.336 9.75 12.75 9.75H15.75C16.164 9.75 16.5 9.414 16.5 9V6Z" fill="#408DFB"/>
</svg>
