<svg width="18" height="18" viewBox="0 0 18 18" fill="none" xmlns="http://www.w3.org/2000/svg">
<g clip-path="url(#clip0_125_160)">
<path d="M12.4133 9.072C14.3048 7.37925 15.4155 5.50275 15.717 3.48525C15.8438 2.637 15.5933 1.7745 15.0293 1.11975C14.4555 0.454504 13.6238 0.0727539 12.747 0.0727539H5.25376C4.37701 0.0727539 3.54451 0.455254 2.97151 1.1205C2.40676 1.77675 2.15626 2.64 2.28376 3.489C2.58751 5.51325 3.69676 7.3875 5.58451 9.072C3.69676 10.7565 2.58751 12.6315 2.28376 14.655C2.15626 15.504 2.40751 16.368 2.97151 17.0235C3.54526 17.6895 4.37701 18.0713 5.25376 18.0713H12.7463C13.623 18.0713 14.4548 17.6895 15.0285 17.0243C15.5933 16.3688 15.8438 15.507 15.717 14.658C15.4155 12.6405 14.3048 10.7655 12.4133 9.072ZM13.8923 16.0455C13.6043 16.38 13.1865 16.572 12.7463 16.572H5.25376C4.81351 16.572 4.39576 16.38 4.10776 16.0448C3.82426 15.7155 3.70276 15.3008 3.76576 14.8778C4.04701 13.0035 5.20801 11.2485 7.21501 9.66C7.39501 9.51825 7.49926 9.30075 7.49926 9.072C7.49926 8.84325 7.39426 8.62575 7.21501 8.484C5.20801 6.8955 4.04701 5.1405 3.76576 3.26625C3.70276 2.84325 3.82351 2.4285 4.10776 2.09925C4.39576 1.76475 4.81351 1.57275 5.25376 1.57275H12.7463C13.1865 1.57275 13.6043 1.764 13.8923 2.09925C14.175 2.42775 14.2965 2.84175 14.2335 3.264C13.9538 5.13 12.7935 6.88725 10.7828 8.4855C10.6043 8.62801 10.5 8.844 10.5 9.07275C10.5 9.30151 10.6043 9.5175 10.7828 9.66C12.7935 11.259 13.9545 13.0155 14.2335 14.8815C14.2965 15.3038 14.175 15.7178 13.8915 16.0463L13.8923 16.0455ZM12.4553 4.104C12.549 3.87225 12.5213 3.60975 12.3818 3.40275C12.2423 3.1965 12.009 3.072 11.76 3.072H6.23776C5.98801 3.072 5.75551 3.1965 5.61601 3.4035C5.47651 3.60975 5.44876 3.87225 5.54251 4.10325C6.10351 5.493 7.26751 6.61275 8.14576 7.30725L8.53501 7.6155C8.67151 7.72425 8.83576 7.7775 9.00076 7.7775C9.16576 7.7775 9.33151 7.72275 9.46801 7.614L9.84901 7.31025C10.7288 6.6105 11.895 5.487 12.4553 4.104ZM8.99926 6.06975C8.52601 5.688 7.97101 5.175 7.52476 4.57275H10.4708C10.026 5.17125 9.47251 5.68575 8.99926 6.06975Z" fill="#408DFB"/>
</g>
<defs>
<clipPath id="clip0_125_160">
<rect width="18" height="18" fill="white"/>
</clipPath>
</defs>
</svg>
