<svg width="18" height="18" viewBox="0 0 18 18" fill="none" xmlns="http://www.w3.org/2000/svg">
<g clip-path="url(#clip0_85_163)">
<path d="M9 15C13.1355 15 16.5 11.6355 16.5 7.5C16.5 3.3645 13.1355 0 9 0C4.8645 0 1.5 3.3645 1.5 7.5C1.5 11.6355 4.8645 15 9 15ZM9 1.5C12.3082 1.5 15 4.19175 15 7.5C15 10.8082 12.3082 13.5 9 13.5C5.69175 13.5 3 10.8082 3 7.5C3 4.19175 5.69175 1.5 9 1.5ZM10.5 9C10.5 8.71575 10.2968 8.4765 10.017 8.42925L7.73625 8.04975C6.72975 7.88175 6 7.01925 6 6C6 4.7595 7.0095 3.75 8.25 3.75V3H9.75V3.75C10.9905 3.75 12 4.7595 12 6H10.5C10.5 5.586 10.1632 5.25 9.75 5.25H8.25C7.83675 5.25 7.5 5.586 7.5 6C7.5 6.28425 7.70325 6.5235 7.983 6.57075L10.2638 6.95025C11.2703 7.11825 12 7.98075 12 9C12 10.2405 10.9905 11.25 9.75 11.25V12H8.25V11.25C7.0095 11.25 6 10.2405 6 9H7.5C7.5 9.414 7.83675 9.75 8.25 9.75H9.75C10.1632 9.75 10.5 9.414 10.5 9ZM18 15.375C18 16.8225 16.8225 18 15.375 18H2.625C1.1775 18 0 16.8225 0 15.375C0 14.2148 0.762 13.2397 1.8075 12.8932C2.17875 13.3875 2.598 13.842 3.06075 14.25H2.625C2.00475 14.25 1.5 14.7548 1.5 15.375C1.5 15.9952 2.00475 16.5 2.625 16.5H15.375C15.9952 16.5 16.5 15.9952 16.5 15.375C16.5 14.7548 15.9952 14.25 15.375 14.25H14.9393C15.4028 13.842 15.8212 13.3875 16.1925 12.8932C17.238 13.239 18 14.2148 18 15.375Z" fill="#408dfb"/>
</g>
<defs>
<clipPath id="clip0_85_163">
<rect width="18" height="18" fill="white"/>
</clipPath>
</defs>
</svg>
