<svg width="18" height="18" viewBox="0 0 18 18" fill="none" xmlns="http://www.w3.org/2000/svg">
<g clip-path="url(#clip0_105_468)">
<path d="M8.625 4.875C8.625 3.83925 9.46425 3 10.5 3C11.5358 3 12.375 3.83925 12.375 4.875C12.375 5.91075 11.5358 6.75 10.5 6.75C9.46425 6.75 8.625 5.91075 8.625 4.875ZM7.428 10.3912C7.782 10.6065 8.244 10.4932 8.4585 10.1392C8.87775 9.44775 9.67875 9 10.5 9C11.3213 9 12.1223 9.447 12.5415 10.1392C12.6825 10.3717 12.9307 10.5 13.1835 10.5C13.3162 10.5 13.4498 10.4647 13.572 10.3912C13.926 10.1767 14.0393 9.7155 13.8248 9.36075C13.128 8.2125 11.8545 7.5 10.5 7.5C9.1455 7.5 7.872 8.21325 7.17525 9.36075C6.96075 9.7155 7.074 10.176 7.428 10.3912ZM16.5 3.75V14.25C16.5 16.3177 14.8178 18 12.75 18H4.5C2.8455 18 1.5 16.6545 1.5 15V3.75C1.5 1.68225 3.18225 0 5.25 0H12.75C14.8178 0 16.5 1.68225 16.5 3.75ZM12.75 1.5H6V12H15V3.75C15 2.5095 13.9905 1.5 12.75 1.5ZM3 3.75V12.417C3.44325 12.159 3.951 12 4.5 12V1.638C3.62925 1.9485 3 2.7735 3 3.75ZM15 14.25V13.5H4.5C3.67275 13.5 3 14.1727 3 15C3 15.8273 3.67275 16.5 4.5 16.5H12.75C13.9905 16.5 15 15.4905 15 14.25Z" fill="#408DFB"/>
</g>
<defs>
<clipPath id="clip0_105_468">
<rect width="18" height="18" fill="white"/>
</clipPath>
</defs>
</svg>
