<svg width="18" height="18" viewBox="0 0 18 18" fill="none" xmlns="http://www.w3.org/2000/svg">
<g clip-path="url(#clip0_125_122)">
<path d="M17.34 8.91C16.4925 8.0625 15.0075 8.0625 14.16 8.91L8.25 14.82V18H11.43L17.34 12.09C17.7675 11.6625 18 11.1 18 10.5C18 9.9 17.7675 9.3375 17.34 8.91ZM16.2825 11.0325L10.815 16.5H9.7575V15.4425L15.225 9.975C15.51 9.69 16.005 9.69 16.2825 9.975C16.425 10.1175 16.5 10.305 16.5 10.5075C16.5 10.71 16.425 10.8975 16.2825 11.04V11.0325ZM1.5 2.25C1.5 1.8375 1.8375 1.5 2.25 1.5H7.5V6H12V8.9475L13.5 7.4475V4.9425L8.5575 0H2.25C1.0125 0 0 1.0125 0 2.25V16.5H6.75V15H1.5V2.25ZM9 2.5575L10.9425 4.5H9V2.5575ZM10.4625 10.485C10.4775 10.365 10.5 10.2525 10.5 10.125C10.5 9.5025 9.9975 9 9.375 9C8.7525 9 8.25 9.5025 8.25 10.125C8.25 10.47 8.295 10.7775 8.37 11.0475C7.98 11.235 7.5825 11.25 7.4925 11.25C7.11 11.25 6.7275 11.1225 6.3675 10.9125C7.0575 10.0875 7.4925 9.0975 7.4925 8.25C7.4925 7.0125 6.48 6 5.2425 6C4.005 6 2.9925 7.0125 2.9925 8.25C2.9925 9.105 3.4275 10.0875 4.1175 10.9125C3.7575 11.1225 3.375 11.25 2.9925 11.25V12.75C3.78 12.75 4.56 12.4425 5.2425 11.9625C5.925 12.4425 6.705 12.75 7.4925 12.75C7.7175 12.75 7.995 12.72 8.28 12.66L10.455 10.485H10.4625ZM5.25 9.93C4.7925 9.36 4.5 8.7225 4.5 8.25C4.5 7.8375 4.8375 7.5 5.25 7.5C5.6625 7.5 6 7.8375 6 8.25C6 8.7225 5.7075 9.36 5.25 9.93Z" fill="#408DFB"/>
</g>
<defs>
<clipPath id="clip0_125_122">
<rect width="18" height="18" fill="white"/>
</clipPath>
</defs>
</svg>
