<svg width="18" height="18" viewBox="0 0 18 18" fill="none" xmlns="http://www.w3.org/2000/svg">
<g clip-path="url(#clip0_110_236)">
<path d="M6.75 18H0.75C0.551088 18 0.360322 17.921 0.21967 17.7803C0.0790176 17.6397 0 17.4489 0 17.25C0 17.0511 0.0790176 16.8603 0.21967 16.7197C0.360322 16.579 0.551088 16.5 0.75 16.5H6.75C6.94891 16.5 7.13968 16.579 7.28033 16.7197C7.42098 16.8603 7.5 17.0511 7.5 17.25C7.5 17.4489 7.42098 17.6397 7.28033 17.7803C7.13968 17.921 6.94891 18 6.75 18Z" fill="#408DFB"/>
<path d="M5.25 15H0.75C0.551088 15 0.360322 14.921 0.21967 14.7803C0.0790176 14.6397 0 14.4489 0 14.25C0 14.0511 0.0790176 13.8603 0.21967 13.7197C0.360322 13.579 0.551088 13.5 0.75 13.5H5.25C5.44891 13.5 5.63968 13.579 5.78033 13.7197C5.92098 13.8603 6 14.0511 6 14.25C6 14.4489 5.92098 14.6397 5.78033 14.7803C5.63968 14.921 5.44891 15 5.25 15Z" fill="#408DFB"/>
<path d="M3.75 12H0.75C0.551088 12 0.360322 11.921 0.21967 11.7803C0.0790176 11.6397 0 11.4489 0 11.25C0 11.0511 0.0790176 10.8603 0.21967 10.7197C0.360322 10.579 0.551088 10.5 0.75 10.5H3.75C3.94891 10.5 4.13968 10.579 4.28033 10.7197C4.42098 10.8603 4.5 11.0511 4.5 11.25C4.5 11.4489 4.42098 11.6397 4.28033 11.7803C4.13968 11.921 3.94891 12 3.75 12Z" fill="#408DFB"/>
<path d="M9.7495 17.9664C9.55059 17.9752 9.35631 17.9047 9.20939 17.7703C9.06248 17.6359 8.97498 17.4487 8.96612 17.2498C8.95727 17.0509 9.0278 16.8566 9.16219 16.7097C9.29659 16.5628 9.48384 16.4752 9.68275 16.4664C11.1021 16.3365 12.455 15.8049 13.5831 14.9338C14.7112 14.0627 15.5678 12.8883 16.0524 11.5479C16.5371 10.2076 16.6298 8.75688 16.3197 7.36575C16.0096 5.97463 15.3095 4.70066 14.3014 3.69307C13.2934 2.68549 12.0191 1.98599 10.6278 1.67652C9.23657 1.36705 7.78592 1.46042 6.4458 1.94569C5.10568 2.43096 3.93158 3.28804 3.06102 4.41654C2.19045 5.54504 1.65946 6.89824 1.53025 8.31765C1.51235 8.51576 1.41648 8.69865 1.26373 8.82608C1.11098 8.95352 0.913865 9.01505 0.715749 8.99715C0.517632 8.97924 0.334741 8.88337 0.20731 8.73062C0.0798793 8.57788 0.0183466 8.38076 0.0362487 8.18265C0.245415 5.87513 1.33645 3.73717 3.08225 2.21382C4.82804 0.69047 7.09408 -0.100905 9.40866 0.0044311C11.7232 0.109767 13.908 1.1037 15.5082 2.77932C17.1085 4.45495 18.0008 6.68317 17.9995 9.00014C18.011 11.2489 17.1756 13.4196 15.6594 15.0804C14.1433 16.7412 12.0575 17.7705 9.817 17.9634C9.7945 17.9656 9.77125 17.9664 9.7495 17.9664Z" fill="#408DFB"/>
<path d="M9 4.5C8.80109 4.5 8.61032 4.57902 8.46967 4.71967C8.32902 4.86032 8.25 5.05109 8.25 5.25V9C8.25004 9.1989 8.32909 9.38963 8.46975 9.53025L10.7198 11.7802C10.8612 11.9169 11.0507 11.9925 11.2473 11.9908C11.4439 11.989 11.6321 11.9102 11.7711 11.7711C11.9102 11.6321 11.989 11.4439 11.9908 11.2473C11.9925 11.0507 11.9169 10.8612 11.7802 10.7198L9.75 8.6895V5.25C9.75 5.05109 9.67098 4.86032 9.53033 4.71967C9.38968 4.57902 9.19891 4.5 9 4.5Z" fill="#408DFB"/>
</g>
<defs>
<clipPath id="clip0_110_236">
<rect width="18" height="18" fill="white"/>
</clipPath>
</defs>
</svg>
