<svg width="18" height="18" viewBox="0 0 18 18" fill="none" xmlns="http://www.w3.org/2000/svg">
<g clip-path="url(#clip0_85_153)">
<path d="M9 8.25C6.93225 8.25 5.25 9.93225 5.25 12C5.25 14.0677 6.93225 15.75 9 15.75C11.0678 15.75 12.75 14.0677 12.75 12C12.75 9.93225 11.0678 8.25 9 8.25ZM9 14.25C7.7595 14.25 6.75 13.2405 6.75 12C6.75 10.7595 7.7595 9.75 9 9.75V10.9987C9 11.4727 9.4845 11.7922 9.92025 11.6055L11.0678 11.1135C11.1848 11.3857 11.25 11.685 11.25 12C11.25 13.2405 10.2405 14.25 9 14.25ZM14.9618 4.152L12.3488 1.5375C11.3565 0.546 10.038 0 8.63625 0H5.25C3.18225 0 1.5 1.68225 1.5 3.75V14.25C1.5 16.3177 3.18225 18 5.25 18H12.75C14.8178 18 16.5 16.3177 16.5 14.25V7.86375C16.5 6.4605 15.9533 5.1435 14.9618 4.152ZM13.9013 5.21325C14.1398 5.451 14.3415 5.71575 14.505 6.00075H11.2493C10.8353 6.00075 10.4993 5.664 10.4993 5.25075V1.99425C10.7843 2.15775 11.049 2.3595 11.2875 2.598L13.9005 5.2125L13.9013 5.21325ZM15 14.2507C15 15.4913 13.9905 16.5007 12.75 16.5007H5.25C4.0095 16.5007 3 15.4913 3 14.2507V3.75C3 2.5095 4.0095 1.5 5.25 1.5H8.63625C8.7585 1.5 8.88 1.506 9 1.51725V5.25C9 6.4905 10.0095 7.5 11.25 7.5H14.9828C14.994 7.62 15 7.7415 15 7.86375V14.2507Z" fill="#408dfb"/>
</g>
<defs>
<clipPath id="clip0_85_153">
<rect width="18" height="18" fill="white"/>
</clipPath>
</defs>
</svg>
