<svg width="18" height="18" viewBox="0 0 18 18" fill="none" xmlns="http://www.w3.org/2000/svg">
<g clip-path="url(#clip0_85_151)">
<path d="M6.75 12.75V14.25C6.75 14.664 6.414 15 6 15C5.586 15 5.25 14.664 5.25 14.25V12.75C5.25 12.336 5.586 12 6 12C6.414 12 6.75 12.336 6.75 12.75ZM12 10.5C11.5853 10.5 11.25 10.836 11.25 11.25V14.25C11.25 14.664 11.5853 15 12 15C12.4148 15 12.75 14.664 12.75 14.25V11.25C12.75 10.836 12.4148 10.5 12 10.5ZM9 8.25C8.586 8.25 8.25 8.586 8.25 9V14.25C8.25 14.664 8.586 15 9 15C9.414 15 9.75 14.664 9.75 14.25V9C9.75 8.586 9.414 8.25 9 8.25ZM16.5 7.86375V14.25C16.5 16.3177 14.8178 18 12.75 18H5.25C3.18225 18 1.5 16.3177 1.5 14.25V3.75C1.5 1.68225 3.18225 0 5.25 0H8.63625C10.038 0 11.3565 0.546 12.3488 1.5375L14.9618 4.152C15.9533 5.14275 16.5 6.46125 16.5 7.8645V7.86375ZM11.2883 2.598C11.0498 2.3595 10.785 2.15775 10.5 1.99425V5.25C10.5 5.66325 10.836 6 11.25 6H14.5058C14.3423 5.71575 14.1398 5.451 13.902 5.2125L11.289 2.598H11.2883ZM15 7.86375C15 7.7415 14.994 7.62 14.9828 7.5H11.25C10.0095 7.5 9 6.4905 9 5.25V1.51725C8.88 1.506 8.7585 1.5 8.63625 1.5H5.25C4.0095 1.5 3 2.5095 3 3.75V14.25C3 15.4905 4.0095 16.5 5.25 16.5H12.75C13.9905 16.5 15 15.4905 15 14.25V7.86375Z" fill="#408dfb"/>
</g>
<defs>
<clipPath id="clip0_85_151">
<rect width="18" height="18" fill="white"/>
</clipPath>
</defs>
</svg>
