<svg width="18" height="18" viewBox="0 0 18 18" fill="none" xmlns="http://www.w3.org/2000/svg">
<g clip-path="url(#clip0_105_554)">
<path d="M8.04727 7.725L9.42727 8.52L10.1773 7.2225L8.79727 6.4275C8.92476 6.0525 9.00727 5.6625 9.00727 5.25C9.00727 4.8375 8.92476 4.4475 8.79727 4.0725L10.1773 3.2775L9.42727 1.98L8.04727 2.775C7.51477 2.175 6.80977 1.74 5.99977 1.575V0H4.49977V1.575C3.68977 1.74 2.98477 2.175 2.45227 2.775L1.07227 1.98L0.322266 3.2775L1.70227 4.0725C1.57477 4.4475 1.49227 4.8375 1.49227 5.25C1.49227 5.6625 1.57477 6.0525 1.70227 6.4275L0.322266 7.2225L1.07227 8.52L2.45227 7.725C2.98477 8.325 3.68977 8.76 4.49977 8.925V10.5H5.99977V8.925C6.80977 8.76 7.51477 8.325 8.04727 7.725ZM2.99977 5.25C2.99977 4.0125 4.01227 3 5.24977 3C6.48727 3 7.49977 4.0125 7.49977 5.25C7.49977 6.4875 6.48727 7.5 5.24977 7.5C4.01227 7.5 2.99977 6.4875 2.99977 5.25ZM16.4998 12.75C16.4998 12.3375 16.4173 11.9475 16.2898 11.5725L17.6698 10.7775L16.9198 9.48L15.5398 10.275C15.0073 9.675 14.3023 9.24 13.4923 9.075V7.5H11.9923V9.075C11.1823 9.24 10.4773 9.675 9.94477 10.275L8.56477 9.48L7.81477 10.7775L9.19477 11.5725C9.06727 11.9475 8.98477 12.3375 8.98477 12.75C8.98477 13.1625 9.06727 13.5525 9.19477 13.9275L7.81477 14.7225L8.56477 16.02L9.94477 15.225C10.4773 15.825 11.1823 16.26 11.9923 16.425V18H13.4923V16.425C14.3023 16.26 15.0073 15.825 15.5398 15.225L16.9198 16.02L17.6698 14.7225L16.2898 13.9275C16.4173 13.5525 16.4998 13.1625 16.4998 12.75ZM12.7498 15C11.5123 15 10.4998 13.9875 10.4998 12.75C10.4998 11.5125 11.5123 10.5 12.7498 10.5C13.9873 10.5 14.9998 11.5125 14.9998 12.75C14.9998 13.9875 13.9873 15 12.7498 15Z" fill="#408DFB"/>
</g>
<defs>
<clipPath id="clip0_105_554">
<rect width="18" height="18" fill="white"/>
</clipPath>
</defs>
</svg>
