<svg width="18" height="18" viewBox="0 0 18 18" fill="none" xmlns="http://www.w3.org/2000/svg">
<g clip-path="url(#clip0_125_156)">
<path d="M14.2403 1.4812H9.34426C9.22876 1.4812 9.11176 1.45345 9.00901 1.40245L6.64201 0.218201C6.33151 0.0629512 5.98351 -0.0187988 5.63551 -0.0187988H3.74026C1.67251 -0.0187988 -0.00973511 1.66345 -0.00973511 3.7312V12.7312C-0.00973511 14.0655 0.708765 15.3097 1.86451 15.9787C2.22376 16.1872 2.68201 16.0635 2.88901 15.7057C3.09676 15.3465 2.97376 14.8882 2.61601 14.6812C1.92151 14.2792 1.49026 13.5322 1.49026 12.7312V5.9812H16.4903V12.7312C16.4903 13.5315 16.059 14.2785 15.3645 14.6812C15.006 14.8882 14.883 15.3472 15.0915 15.7057C15.2303 15.9457 15.4823 16.08 15.741 16.08C15.8685 16.08 15.9975 16.0477 16.116 15.9787C17.2718 15.3097 17.9903 14.0655 17.9903 12.7312V5.2312C17.9903 3.16345 16.308 1.4812 14.2403 1.4812ZM1.49026 3.7312C1.49026 2.4907 2.49976 1.4812 3.74026 1.4812H5.63551C5.75101 1.4812 5.86801 1.5082 5.97077 1.55995L8.33776 2.7442C8.64901 2.8987 8.99701 2.98045 9.34351 2.98045H14.2395C15.216 2.98045 16.041 3.6097 16.3515 4.48045H1.49026V3.7312ZM8.98351 7.4812C6.08926 7.4812 3.73352 9.83695 3.73352 12.7312C3.73352 15.6255 6.08926 17.9812 8.98351 17.9812C11.8778 17.9812 14.2335 15.6255 14.2335 12.7312C14.2335 9.83695 11.8778 7.4812 8.98351 7.4812ZM8.98351 16.4812C6.91576 16.4812 5.23351 14.799 5.23351 12.7312C5.23351 10.6635 6.91576 8.9812 8.98351 8.9812C11.0513 8.9812 12.7335 10.6635 12.7335 12.7312C12.7335 14.799 11.0513 16.4812 8.98351 16.4812ZM10.2638 12.951C10.557 13.2442 10.557 13.7182 10.2638 14.0114C10.1175 14.1577 9.92551 14.2312 9.73351 14.2312C9.54151 14.2312 9.34951 14.1577 9.20326 14.0114L8.45326 13.2614C8.31226 13.1205 8.23351 12.9307 8.23351 12.7312V11.2312C8.23351 10.8165 8.56876 10.4812 8.98351 10.4812C9.39826 10.4812 9.73351 10.8165 9.73351 11.2312V12.4207L10.2638 12.951Z" fill="#408DFB"/>
</g>
<defs>
<clipPath id="clip0_125_156">
<rect width="18" height="18" fill="white"/>
</clipPath>
</defs>
</svg>
