<svg width="18" height="18" viewBox="0 0 18 18" fill="none" xmlns="http://www.w3.org/2000/svg">
<g clip-path="url(#clip0_125_130)">
<path d="M14.9618 1.98309L9 0.00683594L3.03825 1.98309C2.59089 2.1301 2.20135 2.41458 1.92514 2.79596C1.64893 3.17735 1.50015 3.63619 1.5 4.10709V9.00009C1.5 14.6431 8.4 17.7593 8.6955 17.8891L8.961 18.0068L9.237 17.9153C9.53325 17.8163 16.5 15.4328 16.5 9.00009V4.10709C16.4997 3.63621 16.3509 3.17743 16.0747 2.79607C15.7985 2.4147 15.409 2.1302 14.9618 1.98309ZM15 9.00009C15 13.6973 10.2383 15.9121 9.03525 16.3958C7.83 15.7936 3 13.1206 3 9.00009V4.10709C3.00007 3.95009 3.0497 3.79712 3.14181 3.66999C3.23393 3.54285 3.36383 3.44805 3.513 3.39909L9 1.57959L14.487 3.39909C14.6363 3.44785 14.7663 3.5426 14.8585 3.66978C14.9506 3.79696 15.0002 3.95003 15 4.10709V9.00009Z" fill="#408DFB"/>
</g>
<defs>
<clipPath id="clip0_125_130">
<rect width="18" height="18" fill="white"/>
</clipPath>
</defs>
</svg>
