<svg width="18" height="18" viewBox="0 0 18 18" fill="none" xmlns="http://www.w3.org/2000/svg">
<g clip-path="url(#clip0_125_133)">
<path d="M18 15C18 16.2405 16.9905 17.25 15.75 17.25V18H14.25V17.25C13.0095 17.25 12 16.2405 12 15H13.5C13.5 15.4132 13.836 15.75 14.25 15.75H15.75C16.164 15.75 16.5 15.4132 16.5 15C16.5 14.7165 16.2968 14.4765 16.017 14.43L13.7362 14.0497C12.7298 13.8825 12 13.02 12 12C12 10.7595 13.0095 9.75 14.25 9.75V9H15.75V9.75C16.9905 9.75 18 10.7595 18 12H16.5C16.5 11.5868 16.164 11.25 15.75 11.25H14.25C13.836 11.25 13.5 11.5868 13.5 12C13.5 12.2835 13.7032 12.5235 13.983 12.57L16.2638 12.9503C17.2703 13.1175 18 13.98 18 15ZM10.5758 11.25C10.6897 10.6927 10.9373 10.188 11.2687 9.75H3.75V15H10.5V13.5H5.25V11.25H10.5758ZM3.75 8.25H7.5V6.75H3.75V8.25ZM7.5 3.75H3.75V5.25H7.5V3.75ZM12.0233 18H0.75V2.25C0.75 1.0095 1.7595 0 3 0H10.0605L15.75 5.6895V7.5H14.25V6.75H9V1.5H3C2.58675 1.5 2.25 1.83675 2.25 2.25V16.5H10.818C11.082 17.1007 11.5028 17.6122 12.0233 18ZM10.5 5.25H13.1895L10.5 2.5605V5.25Z" fill="#408DFB"/>
</g>
<defs>
<clipPath id="clip0_125_133">
<rect width="18" height="18" fill="white"/>
</clipPath>
</defs>
</svg>
