<svg width="18" height="18" viewBox="0 0 18 18" fill="none" xmlns="http://www.w3.org/2000/svg">
<g clip-path="url(#clip0_108_919)">
<path d="M14.9625 4.15509L12.3525 1.54509C11.3625 0.555093 10.0425 0.00759337 8.64 0.00759337H5.25C3.18 9.3373e-05 1.5 1.68009 1.5 3.75009V14.2501C1.5 16.3201 3.18 18.0001 5.25 18.0001H12.75C14.82 18.0001 16.5 16.3201 16.5 14.2501V7.86759C16.5 6.46509 15.9525 5.14509 14.9625 4.15509ZM13.905 5.21259C14.145 5.45259 14.3475 5.71509 14.5125 6.00009H11.2575C10.845 6.00009 10.5075 5.66259 10.5075 5.25009V1.99509C10.7925 2.16009 11.055 2.36259 11.295 2.60259L13.905 5.21259ZM15 14.2501C15 15.4876 13.9875 16.5001 12.75 16.5001H5.25C4.0125 16.5001 3 15.4876 3 14.2501V3.75009C3 2.51259 4.0125 1.50009 5.25 1.50009H8.6325C8.7525 1.50009 8.88 1.50009 9 1.51509V5.25009C9 6.48759 10.0125 7.50009 11.25 7.50009H14.985C15 7.62009 15 7.74009 15 7.86759V14.2501ZM7.5 14.2501C7.5 14.6626 7.1625 15.0001 6.75 15.0001H5.25C4.8375 15.0001 4.5 14.6626 4.5 14.2501V13.5001C4.5 13.0876 4.8375 12.7501 5.25 12.7501C5.6625 12.7501 6 13.0876 6 13.5001H6.75C7.1625 13.5001 7.5 13.8376 7.5 14.2501ZM13.5 13.5001V14.2501C13.5 14.6626 13.1625 15.0001 12.75 15.0001H11.25C10.8375 15.0001 10.5 14.6626 10.5 14.2501C10.5 13.8376 10.8375 13.5001 11.25 13.5001H12C12 13.0876 12.3375 12.7501 12.75 12.7501C13.1625 12.7501 13.5 13.0876 13.5 13.5001ZM13.5 9.75009V10.5001C13.5 10.9126 13.1625 11.2501 12.75 11.2501C12.3375 11.2501 12 10.9126 12 10.5001H11.25C10.8375 10.5001 10.5 10.1626 10.5 9.75009C10.5 9.33759 10.8375 9.00009 11.25 9.00009H12.75C13.1625 9.00009 13.5 9.33759 13.5 9.75009ZM7.5 9.75009C7.5 10.1626 7.1625 10.5001 6.75 10.5001H6C6 10.9126 5.6625 11.2501 5.25 11.2501C4.8375 11.2501 4.5 10.9126 4.5 10.5001V9.75009C4.5 9.33759 4.8375 9.00009 5.25 9.00009H6.75C7.1625 9.00009 7.5 9.33759 7.5 9.75009ZM7.5 6.75009C7.5 7.16259 7.1625 7.50009 6.75 7.50009H5.25C4.8375 7.50009 4.5 7.16259 4.5 6.75009C4.5 6.33759 4.8375 6.00009 5.25 6.00009H6.75C7.1625 6.00009 7.5 6.33759 7.5 6.75009Z" fill="#408DFB"/>
</g>
<defs>
<clipPath id="clip0_108_919">
<rect width="18" height="18" fill="white"/>
</clipPath>
</defs>
</svg>
