<svg width="18" height="18" viewBox="0 0 18 18" fill="none" xmlns="http://www.w3.org/2000/svg">
<g clip-path="url(#clip0_85_159)">
<path d="M6 0H3C2.20435 0 1.44129 0.316071 0.87868 0.87868C0.316071 1.44129 0 2.20435 0 3L0 3.75C0 4.54565 0.316071 5.30871 0.87868 5.87132C1.44129 6.43393 2.20435 6.75 3 6.75H3.75V8.25H2.25C2.05109 8.25 1.86032 8.32902 1.71967 8.46967C1.57902 8.61032 1.5 8.80109 1.5 9C1.5 9.19891 1.57902 9.38968 1.71967 9.53033C1.86032 9.67098 2.05109 9.75 2.25 9.75H6.75C6.94891 9.75 7.13968 9.67098 7.28033 9.53033C7.42098 9.38968 7.5 9.19891 7.5 9C7.5 8.80109 7.42098 8.61032 7.28033 8.46967C7.13968 8.32902 6.94891 8.25 6.75 8.25H5.25V6.75H6C6.79565 6.75 7.55871 6.43393 8.12132 5.87132C8.68393 5.30871 9 4.54565 9 3.75V3C9 2.20435 8.68393 1.44129 8.12132 0.87868C7.55871 0.316071 6.79565 0 6 0ZM7.5 3.75C7.5 4.14782 7.34196 4.52936 7.06066 4.81066C6.77936 5.09196 6.39782 5.25 6 5.25H3C2.60218 5.25 2.22064 5.09196 1.93934 4.81066C1.65804 4.52936 1.5 4.14782 1.5 3.75V3C1.5 2.60218 1.65804 2.22064 1.93934 1.93934C2.22064 1.65804 2.60218 1.5 3 1.5H6C6.39782 1.5 6.77936 1.65804 7.06066 1.93934C7.34196 2.22064 7.5 2.60218 7.5 3V3.75ZM15 8.25H13.5C12.7044 8.25 11.9413 8.56607 11.3787 9.12868C10.8161 9.69129 10.5 10.4544 10.5 11.25V15C10.5 15.7956 10.8161 16.5587 11.3787 17.1213C11.9413 17.6839 12.7044 18 13.5 18H15C15.7956 18 16.5587 17.6839 17.1213 17.1213C17.6839 16.5587 18 15.7956 18 15V11.25C18 10.4544 17.6839 9.69129 17.1213 9.12868C16.5587 8.56607 15.7956 8.25 15 8.25ZM16.5 15C16.5 15.3978 16.342 15.7794 16.0607 16.0607C15.7794 16.342 15.3978 16.5 15 16.5H13.5C13.1022 16.5 12.7206 16.342 12.4393 16.0607C12.158 15.7794 12 15.3978 12 15V11.25C12 10.8522 12.158 10.4706 12.4393 10.1893C12.7206 9.90804 13.1022 9.75 13.5 9.75H15C15.3978 9.75 15.7794 9.90804 16.0607 10.1893C16.342 10.4706 16.5 10.8522 16.5 11.25V15ZM10.5 3C10.5 2.80109 10.579 2.61032 10.7197 2.46967C10.8603 2.32902 11.0511 2.25 11.25 2.25H12.75C13.3467 2.25 13.919 2.48705 14.341 2.90901C14.7629 3.33097 15 3.90326 15 4.5V6C15 6.19891 14.921 6.38968 14.7803 6.53033C14.6397 6.67098 14.4489 6.75 14.25 6.75C14.0511 6.75 13.8603 6.67098 13.7197 6.53033C13.579 6.38968 13.5 6.19891 13.5 6V4.5C13.5 4.30109 13.421 4.11032 13.2803 3.96967C13.1397 3.82902 12.9489 3.75 12.75 3.75H11.25C11.0511 3.75 10.8603 3.67098 10.7197 3.53033C10.579 3.38968 10.5 3.19891 10.5 3ZM9 15C9 15.1989 8.92098 15.3897 8.78033 15.5303C8.63968 15.671 8.44891 15.75 8.25 15.75H6C5.40326 15.75 4.83097 15.5129 4.40901 15.091C3.98705 14.669 3.75 14.0967 3.75 13.5V12C3.75 11.8011 3.82902 11.6103 3.96967 11.4697C4.11032 11.329 4.30109 11.25 4.5 11.25C4.69891 11.25 4.88968 11.329 5.03033 11.4697C5.17098 11.6103 5.25 11.8011 5.25 12V13.5C5.25 13.6989 5.32902 13.8897 5.46967 14.0303C5.61032 14.171 5.80109 14.25 6 14.25H8.25C8.44891 14.25 8.63968 14.329 8.78033 14.4697C8.92098 14.6103 9 14.8011 9 15ZM15 15C15 15.1483 14.956 15.2933 14.8736 15.4167C14.7912 15.54 14.6741 15.6361 14.537 15.6929C14.4 15.7497 14.2492 15.7645 14.1037 15.7356C13.9582 15.7066 13.8246 15.6352 13.7197 15.5303C13.6148 15.4254 13.5434 15.2918 13.5144 15.1463C13.4855 15.0008 13.5003 14.85 13.5571 14.713C13.6139 14.5759 13.71 14.4588 13.8333 14.3764C13.9567 14.294 14.1017 14.25 14.25 14.25C14.4489 14.25 14.6397 14.329 14.7803 14.4697C14.921 14.6103 15 14.8011 15 15Z" fill="#408dfb"/>
</g>
<defs>
<clipPath id="clip0_85_159">
<rect width="18" height="18" fill="white"/>
</clipPath>
</defs>
</svg>
