<svg width="18" height="18" viewBox="0 0 18 18" fill="none" xmlns="http://www.w3.org/2000/svg">
<g clip-path="url(#clip0_125_278)">
<path d="M12.75 7.5C9.855 7.5 7.5 9.855 7.5 12.75C7.5 15.645 9.855 18 12.75 18C15.645 18 18 15.645 18 12.75C18 9.855 15.645 7.5 12.75 7.5ZM12.75 16.5C10.68 16.5 9 14.82 9 12.75C9 10.68 10.68 9 12.75 9C14.82 9 16.5 10.68 16.5 12.75C16.5 14.82 14.82 16.5 12.75 16.5ZM12 10.5H13.5V12H12V10.5ZM12 12.75H13.5V15H12V12.75ZM1.5 15V2.25C1.5 1.8375 1.8375 1.5 2.25 1.5H7.5V6H13.5V4.9425L8.5575 0H2.25C1.0125 0 0 1.0125 0 2.25V16.5H7.14C6.8325 16.035 6.585 15.5325 6.3975 15H1.5ZM9 2.5575L10.9425 4.5H9V2.5575Z" fill="#408DFB"/>
</g>
<defs>
<clipPath id="clip0_125_278">
<rect width="18" height="18" fill="white"/>
</clipPath>
</defs>
</svg>
