<svg width="18" height="18" viewBox="0 0 18 18" fill="none" xmlns="http://www.w3.org/2000/svg">
<g clip-path="url(#clip0_85_143)">
<path d="M11.2498 4.5C11.2498 2.01825 9.23152 0 6.74977 0C4.26802 0 2.24977 2.01825 2.24977 4.5C2.24977 6.98175 4.26802 9 6.74977 9C9.23152 9 11.2498 6.98175 11.2498 4.5ZM6.74977 7.5C5.09527 7.5 3.74977 6.1545 3.74977 4.5C3.74977 2.8455 5.09527 1.5 6.74977 1.5C8.40427 1.5 9.74977 2.8455 9.74977 4.5C9.74977 6.1545 8.40427 7.5 6.74977 7.5ZM6.74377 11.2035C6.79477 11.6145 6.50377 11.9888 6.09202 12.0405C3.47377 12.3675 1.49902 14.6062 1.49902 17.25C1.49902 17.664 1.16302 18 0.749023 18C0.335023 18 -0.000976562 17.664 -0.000976562 17.25C-0.000976562 13.8517 2.53852 10.9725 5.90602 10.5525C6.31252 10.5007 6.69127 10.7925 6.74302 11.2043L6.74377 11.2035ZM17.0218 14.3497L16.2913 13.9282C16.4158 13.5555 16.4998 13.164 16.4998 12.7493C16.4998 12.3345 16.4165 11.943 16.2913 11.5702L17.0218 11.1488C17.3803 10.9417 17.5033 10.4827 17.2963 10.1242C17.0885 9.765 16.631 9.64125 16.2718 9.84975L15.542 10.2712C15.0133 9.67575 14.309 9.24 13.4998 9.07575V8.25C13.4998 7.836 13.1638 7.5 12.7498 7.5C12.3358 7.5 11.9998 7.836 11.9998 8.25V9.07575C11.1905 9.24075 10.4863 9.6765 9.95752 10.2712L9.22777 9.84975C8.86777 9.642 8.41027 9.765 8.20327 10.1242C7.99627 10.4835 8.11927 10.9417 8.47777 11.1488L9.20827 11.5702C9.08377 11.943 8.99977 12.3345 8.99977 12.7493C8.99977 13.164 9.08302 13.5555 9.20827 13.9282L8.47777 14.3497C8.11927 14.5567 7.99627 15.0158 8.20327 15.3743C8.34277 15.615 8.59402 15.7493 8.85352 15.7493C8.98027 15.7493 9.10927 15.717 9.22777 15.6488L9.95752 15.2272C10.4863 15.8228 11.1905 16.2585 11.9998 16.4227V17.2485C11.9998 17.6625 12.3358 17.9985 12.7498 17.9985C13.1638 17.9985 13.4998 17.6625 13.4998 17.2485V16.4227C14.309 16.2577 15.0133 15.822 15.542 15.2272L16.2718 15.6488C16.3903 15.717 16.5193 15.7493 16.646 15.7493C16.9055 15.7493 17.1575 15.615 17.2963 15.3743C17.5033 15.015 17.3803 14.5567 17.0218 14.3497ZM12.7498 14.9993C11.5093 14.9993 10.4998 13.9898 10.4998 12.7493C10.4998 11.5087 11.5093 10.4992 12.7498 10.4992C13.9903 10.4992 14.9998 11.5087 14.9998 12.7493C14.9998 13.9898 13.9903 14.9993 12.7498 14.9993Z" fill="#408dfb"/>
</g>
<defs>
<clipPath id="clip0_85_143">
<rect width="18" height="18" fill="white"/>
</clipPath>
</defs>
</svg>
