<svg width="18" height="18" viewBox="0 0 18 18" fill="none" xmlns="http://www.w3.org/2000/svg">
<g clip-path="url(#clip0_107_695)">
<path d="M5.625 9.75C4.95749 9.75 4.30497 9.55206 3.74995 9.18121C3.19493 8.81036 2.76235 8.28326 2.50691 7.66656C2.25146 7.04986 2.18462 6.37126 2.31485 5.71657C2.44507 5.06189 2.76651 4.46052 3.23851 3.98852C3.71052 3.51651 4.31188 3.19508 4.96657 3.06485C5.62126 2.93463 6.29986 3.00146 6.91656 3.25691C7.53326 3.51235 8.06036 3.94494 8.43121 4.49995C8.80206 5.05497 9 5.70749 9 6.375C8.99901 7.2698 8.64311 8.12767 8.01039 8.76039C7.37767 9.39311 6.5198 9.74901 5.625 9.75ZM5.625 4.5C5.25416 4.5 4.89165 4.60997 4.58331 4.816C4.27496 5.02202 4.03464 5.31486 3.89273 5.65747C3.75081 6.00008 3.71368 6.37708 3.78603 6.7408C3.85837 7.10451 4.03695 7.4386 4.29917 7.70083C4.5614 7.96305 4.89549 8.14163 5.25921 8.21397C5.62292 8.28632 5.99992 8.24919 6.34253 8.10728C6.68514 7.96536 6.97798 7.72504 7.18401 7.4167C7.39003 7.10835 7.5 6.74584 7.5 6.375C7.5 5.87772 7.30246 5.40081 6.95083 5.04918C6.59919 4.69755 6.12228 4.5 5.625 4.5ZM11.25 15C11.2488 14.0058 10.8533 13.0527 10.1503 12.3497C9.44733 11.6467 8.4942 11.2512 7.5 11.25H3.75C2.7558 11.2512 1.80267 11.6467 1.09966 12.3497C0.396661 13.0527 0.00119089 14.0058 0 15L0 18H1.5V15C1.5 14.4033 1.73705 13.831 2.15901 13.409C2.58097 12.9871 3.15326 12.75 3.75 12.75H7.5C8.09674 12.75 8.66903 12.9871 9.09099 13.409C9.51295 13.831 9.75 14.4033 9.75 15V18H11.25V15ZM13.125 6.75C12.4575 6.75 11.805 6.55206 11.25 6.18121C10.6949 5.81036 10.2624 5.28326 10.0069 4.66656C9.75146 4.04986 9.68462 3.37126 9.81485 2.71657C9.94507 2.06189 10.2665 1.46052 10.7385 0.988516C11.2105 0.516514 11.8119 0.195076 12.4666 0.0648512C13.1213 -0.0653739 13.7999 0.00146234 14.4166 0.256908C15.0333 0.512354 15.5604 0.944936 15.9312 1.49995C16.3021 2.05497 16.5 2.70749 16.5 3.375C16.499 4.2698 16.1431 5.12767 15.5104 5.76039C14.8777 6.39311 14.0198 6.74901 13.125 6.75ZM13.125 1.5C12.7542 1.5 12.3916 1.60997 12.0833 1.816C11.775 2.02202 11.5346 2.31486 11.3927 2.65747C11.2508 3.00008 11.2137 3.37708 11.286 3.7408C11.3584 4.10451 11.537 4.4386 11.7992 4.70083C12.0614 4.96305 12.3955 5.14163 12.7592 5.21397C13.1229 5.28632 13.4999 5.24919 13.8425 5.10728C14.1851 4.96536 14.478 4.72504 14.684 4.4167C14.89 4.10835 15 3.74584 15 3.375C15 2.87772 14.8025 2.40081 14.4508 2.04918C14.0992 1.69755 13.6223 1.5 13.125 1.5ZM18 12C17.9988 11.0058 17.6033 10.0527 16.9003 9.34967C16.1973 8.64666 15.2442 8.25119 14.25 8.25H11.25V9.75H14.25C14.8467 9.75 15.419 9.98705 15.841 10.409C16.2629 10.831 16.5 11.4033 16.5 12V15H18V12Z" fill="#408DFB"/>
</g>
<defs>
<clipPath id="clip0_107_695">
<rect width="18" height="18" fill="white"/>
</clipPath>
</defs>
</svg>
