<svg width="18" height="18" viewBox="0 0 18 18" fill="none" xmlns="http://www.w3.org/2000/svg">
<g clip-path="url(#clip0_85_149)">
<path d="M16.5 12.75V12C16.5 9.93 14.82 8.25 12.75 8.25H9.75V5.25C10.575 5.25 11.25 4.575 11.25 3.75V2.25C11.25 1.425 10.575 0.75 9.75 0.75H8.25C7.425 0.75 6.75 1.425 6.75 2.25V3.75C6.75 4.575 7.425 5.25 8.25 5.25V8.25H5.25C3.18 8.25 1.5 9.93 1.5 12V12.75C0.675 12.75 0 13.425 0 14.25V15.75C0 16.575 0.675 17.25 1.5 17.25H3C3.825 17.25 4.5 16.575 4.5 15.75V14.25C4.5 13.425 3.825 12.75 3 12.75V12C3 10.7625 4.0125 9.75 5.25 9.75H8.25V12.75C7.425 12.75 6.75 13.425 6.75 14.25V15.75C6.75 16.575 7.425 17.25 8.25 17.25H9.75C10.575 17.25 11.25 16.575 11.25 15.75V14.25C11.25 13.425 10.575 12.75 9.75 12.75V9.75H12.75C13.9875 9.75 15 10.7625 15 12V12.75C14.175 12.75 13.5 13.425 13.5 14.25V15.75C13.5 16.575 14.175 17.25 15 17.25H16.5C17.325 17.25 18 16.575 18 15.75V14.25C18 13.425 17.325 12.75 16.5 12.75ZM8.25 2.25H9.75V3.75H8.25V2.25ZM3 15.75H1.5V14.25H3V15.75ZM9.75 15.75H8.25V14.25H9.75V15.75ZM16.5 15.75H15V14.25H16.5V15.75Z" fill="#408dfb"/>
</g>
<defs>
<clipPath id="clip0_85_149">
<rect width="18" height="18" fill="white"/>
</clipPath>
</defs>
</svg>
